%FSLAX34Y34*%
%MOMM*%
%LNSILK_BOTTOM_*%
G71*
G01*
%ADD10C, 0.00*%
%ADD11C, 0.20*%
%ADD12C, 0.16*%
%ADD13C, 0.21*%
%LPD*%
G54D10*
X331Y434D02*
X-999669Y434D01*
X-999669Y-449566D01*
X331Y-449566D01*
X331Y434D01*
G54D11*
X-179453Y-401872D02*
X-165166Y-401872D01*
X-165166Y-430447D01*
X-295341Y-430447D01*
X-295341Y-401872D01*
X-179453Y-401872D01*
G54D11*
X-681897Y-111757D02*
X-681897Y-297156D01*
X-250097Y-297156D01*
X-250097Y-111757D01*
X-681897Y-111757D01*
G54D12*
X-638590Y-167059D02*
X-647478Y-167059D01*
G54D12*
X-647478Y-169726D02*
X-647478Y-164393D01*
G54D12*
X-647478Y-161282D02*
X-638590Y-154615D01*
G54D12*
X-638590Y-161282D02*
X-647478Y-154615D01*
G54D12*
X-638590Y-151504D02*
X-647478Y-146171D01*
G54D12*
X-644145Y-143060D02*
X-647478Y-139727D01*
X-638590Y-139727D01*
G54D12*
X-617634Y-168461D02*
X-616524Y-166461D01*
X-615412Y-165795D01*
X-613190Y-165795D01*
G54D12*
X-613190Y-171128D02*
X-622079Y-171128D01*
X-622079Y-167795D01*
X-621524Y-166461D01*
X-620412Y-165795D01*
X-619301Y-165795D01*
X-618190Y-166461D01*
X-617634Y-167795D01*
X-617634Y-171128D01*
G54D12*
X-622079Y-162684D02*
X-613190Y-156017D01*
G54D12*
X-613190Y-162684D02*
X-622079Y-156017D01*
G54D12*
X-613190Y-152906D02*
X-622079Y-147573D01*
G54D12*
X-620412Y-139129D02*
X-614856Y-139129D01*
X-613746Y-139795D01*
X-613190Y-141129D01*
X-613190Y-142462D01*
X-613746Y-143795D01*
X-614856Y-144462D01*
X-620412Y-144462D01*
X-621524Y-143795D01*
X-622079Y-142462D01*
X-622079Y-141129D01*
X-621524Y-139795D01*
X-620412Y-139129D01*
G54D12*
X-592234Y-158674D02*
X-591124Y-156674D01*
X-590012Y-156008D01*
X-587790Y-156008D01*
G54D12*
X-587790Y-161341D02*
X-596679Y-161341D01*
X-596679Y-158008D01*
X-596124Y-156674D01*
X-595012Y-156008D01*
X-593901Y-156008D01*
X-592790Y-156674D01*
X-592234Y-158008D01*
X-592234Y-161341D01*
G54D12*
X-589456Y-152897D02*
X-588346Y-152230D01*
X-587790Y-150897D01*
X-587790Y-149564D01*
X-588346Y-148230D01*
X-589456Y-147564D01*
X-590568Y-147564D01*
X-591679Y-148230D01*
X-592234Y-149564D01*
X-592234Y-150897D01*
X-592790Y-152230D01*
X-593901Y-152897D01*
X-595012Y-152897D01*
X-596124Y-152230D01*
X-596679Y-150897D01*
X-596679Y-149564D01*
X-596124Y-148230D01*
X-595012Y-147564D01*
G54D12*
X-587790Y-141786D02*
X-596679Y-141786D01*
G54D12*
X-596679Y-144453D02*
X-596679Y-139120D01*
G54D12*
X-566834Y-159172D02*
X-566834Y-156506D01*
X-564056Y-156506D01*
X-562946Y-157172D01*
X-562390Y-158506D01*
X-562390Y-159839D01*
X-562946Y-161172D01*
X-564056Y-161839D01*
X-569612Y-161839D01*
X-570724Y-161172D01*
X-571279Y-159839D01*
X-571279Y-158506D01*
X-570724Y-157172D01*
X-569612Y-156506D01*
G54D12*
X-562390Y-153395D02*
X-571279Y-153395D01*
X-562390Y-148062D01*
X-571279Y-148062D01*
G54D12*
X-562390Y-144951D02*
X-571279Y-144951D01*
X-571279Y-141618D01*
X-570724Y-140284D01*
X-569612Y-139618D01*
X-564056Y-139618D01*
X-562946Y-140284D01*
X-562390Y-141618D01*
X-562390Y-144951D01*
G54D12*
X-538578Y-189654D02*
X-547467Y-189654D01*
G54D12*
X-538578Y-186543D02*
X-547467Y-186543D01*
X-538578Y-181210D01*
X-547467Y-181210D01*
G54D12*
X-538578Y-175432D02*
X-547467Y-175432D01*
G54D12*
X-547467Y-178099D02*
X-547467Y-172766D01*
G54D12*
X-545800Y-164322D02*
X-540244Y-164322D01*
X-539134Y-164988D01*
X-538578Y-166322D01*
X-538578Y-167655D01*
X-539134Y-168988D01*
X-540244Y-169655D01*
X-545800Y-169655D01*
X-546912Y-168988D01*
X-547467Y-167655D01*
X-547467Y-166322D01*
X-546912Y-164988D01*
X-545800Y-164322D01*
G54D12*
X-538578Y-161211D02*
X-547467Y-155878D01*
G54D12*
X-538578Y-152767D02*
X-547467Y-152767D01*
X-547467Y-149434D01*
X-546912Y-148100D01*
X-545800Y-147434D01*
X-540244Y-147434D01*
X-539134Y-148100D01*
X-538578Y-149434D01*
X-538578Y-152767D01*
G54D12*
X-538578Y-138990D02*
X-538578Y-144323D01*
X-539134Y-144323D01*
X-540244Y-143656D01*
X-543578Y-139656D01*
X-544689Y-138990D01*
X-545800Y-138990D01*
X-546912Y-139656D01*
X-547467Y-140990D01*
X-547467Y-142323D01*
X-546912Y-143656D01*
X-545800Y-144323D01*
G54D12*
X-513178Y-198632D02*
X-522067Y-198632D01*
G54D12*
X-513178Y-195520D02*
X-522067Y-195520D01*
X-513178Y-190187D01*
X-522067Y-190187D01*
G54D12*
X-513178Y-184410D02*
X-522067Y-184410D01*
G54D12*
X-522067Y-187076D02*
X-522067Y-181743D01*
G54D12*
X-518734Y-178632D02*
X-522067Y-175299D01*
X-513178Y-175299D01*
G54D12*
X-513178Y-172188D02*
X-522067Y-166855D01*
G54D12*
X-513178Y-163744D02*
X-522067Y-163744D01*
X-522067Y-160411D01*
X-521512Y-159078D01*
X-520400Y-158411D01*
X-514844Y-158411D01*
X-513734Y-159078D01*
X-513178Y-160411D01*
X-513178Y-163744D01*
G54D12*
X-520400Y-155300D02*
X-521512Y-154634D01*
X-522067Y-153300D01*
X-522067Y-151967D01*
X-521512Y-150634D01*
X-520400Y-149967D01*
X-519289Y-149967D01*
X-518178Y-150634D01*
X-517622Y-151967D01*
X-517067Y-150634D01*
X-515956Y-149967D01*
X-514844Y-149967D01*
X-513734Y-150634D01*
X-513178Y-151967D01*
X-513178Y-153300D01*
X-513734Y-154634D01*
X-514844Y-155300D01*
G54D12*
X-516400Y-146723D02*
X-517512Y-145923D01*
X-517956Y-145256D01*
X-517956Y-144323D01*
X-517512Y-143656D01*
X-516289Y-142990D01*
X-515178Y-142190D01*
X-514734Y-141523D01*
X-514734Y-140590D01*
X-515178Y-139923D01*
X-516400Y-139256D01*
G54D12*
X-487778Y-153319D02*
X-496667Y-153319D01*
X-496667Y-149986D01*
X-496112Y-148652D01*
X-495000Y-147986D01*
X-489444Y-147986D01*
X-488334Y-148652D01*
X-487778Y-149986D01*
X-487778Y-153319D01*
G54D12*
X-487778Y-140875D02*
X-496667Y-140875D01*
X-491112Y-144875D01*
X-490000Y-144875D01*
X-490000Y-139542D01*
G54D12*
X-462378Y-164297D02*
X-471267Y-164297D01*
X-471267Y-160964D01*
X-470712Y-159631D01*
X-469600Y-158964D01*
X-464044Y-158964D01*
X-462934Y-159631D01*
X-462378Y-160964D01*
X-462378Y-164297D01*
G54D12*
X-471267Y-150520D02*
X-471267Y-155853D01*
X-467378Y-155853D01*
X-467378Y-155187D01*
X-467934Y-153853D01*
X-467934Y-152520D01*
X-467378Y-151187D01*
X-466267Y-150520D01*
X-464044Y-150520D01*
X-462934Y-151187D01*
X-462378Y-152520D01*
X-462378Y-153853D01*
X-462934Y-155187D01*
X-464044Y-155853D01*
G54D12*
X-465600Y-147276D02*
X-466712Y-146476D01*
X-467156Y-145809D01*
X-467156Y-144876D01*
X-466712Y-144209D01*
X-465489Y-143543D01*
X-464378Y-142743D01*
X-463934Y-142076D01*
X-463934Y-141143D01*
X-464378Y-140476D01*
X-465600Y-139809D01*
G54D12*
X-436978Y-163504D02*
X-445867Y-163504D01*
X-445867Y-160170D01*
X-445312Y-158837D01*
X-444200Y-158170D01*
X-438644Y-158170D01*
X-437534Y-158837D01*
X-436978Y-160170D01*
X-436978Y-163504D01*
G54D12*
X-444200Y-149726D02*
X-445312Y-150393D01*
X-445867Y-151726D01*
X-445867Y-153060D01*
X-445312Y-154393D01*
X-444200Y-155060D01*
X-441422Y-155060D01*
X-440867Y-155060D01*
X-441978Y-153060D01*
X-441978Y-151726D01*
X-441422Y-150393D01*
X-440312Y-149726D01*
X-438644Y-149726D01*
X-437534Y-150393D01*
X-436978Y-151726D01*
X-436978Y-153060D01*
X-437534Y-154393D01*
X-438644Y-155060D01*
X-441422Y-155060D01*
G54D12*
X-440200Y-146482D02*
X-441312Y-145682D01*
X-441756Y-145016D01*
X-441756Y-144082D01*
X-441312Y-143416D01*
X-440089Y-142749D01*
X-438978Y-141949D01*
X-438534Y-141282D01*
X-438534Y-140349D01*
X-438978Y-139682D01*
X-440200Y-139016D01*
G54D12*
X-411578Y-153326D02*
X-420467Y-153326D01*
X-420467Y-149992D01*
X-419912Y-148659D01*
X-418800Y-147992D01*
X-413244Y-147992D01*
X-412134Y-148659D01*
X-411578Y-149992D01*
X-411578Y-153326D01*
G54D12*
X-420467Y-144882D02*
X-420467Y-139548D01*
X-419356Y-140215D01*
X-417689Y-141548D01*
X-415467Y-142882D01*
X-413800Y-143548D01*
X-411578Y-143548D01*
G54D12*
X-386178Y-153420D02*
X-395067Y-153420D01*
X-395067Y-150087D01*
X-394512Y-148754D01*
X-393400Y-148087D01*
X-387844Y-148087D01*
X-386734Y-148754D01*
X-386178Y-150087D01*
X-386178Y-153420D01*
G54D12*
X-390622Y-141643D02*
X-390622Y-142976D01*
X-391178Y-144310D01*
X-392289Y-144976D01*
X-393400Y-144976D01*
X-394512Y-144310D01*
X-395067Y-142976D01*
X-395067Y-141643D01*
X-394512Y-140310D01*
X-393400Y-139643D01*
X-392289Y-139643D01*
X-391178Y-140310D01*
X-390622Y-141643D01*
X-390067Y-140310D01*
X-388956Y-139643D01*
X-387844Y-139643D01*
X-386734Y-140310D01*
X-386178Y-141643D01*
X-386178Y-142976D01*
X-386734Y-144310D01*
X-387844Y-144976D01*
X-388956Y-144976D01*
X-390067Y-144310D01*
X-390622Y-142976D01*
G54D12*
X-360380Y-164297D02*
X-369270Y-164297D01*
X-369270Y-160964D01*
X-368714Y-159631D01*
X-367603Y-158964D01*
X-362047Y-158964D01*
X-360936Y-159631D01*
X-360380Y-160964D01*
X-360380Y-164297D01*
G54D12*
X-362047Y-155853D02*
X-360936Y-155187D01*
X-360380Y-153853D01*
X-360380Y-152520D01*
X-360936Y-151187D01*
X-362047Y-150520D01*
X-364825Y-150520D01*
X-365380Y-150520D01*
X-364270Y-152520D01*
X-364270Y-153853D01*
X-364825Y-155187D01*
X-365936Y-155853D01*
X-367603Y-155853D01*
X-368714Y-155187D01*
X-369270Y-153853D01*
X-369270Y-152520D01*
X-368714Y-151187D01*
X-367603Y-150520D01*
X-364825Y-150520D01*
G54D12*
X-363603Y-147276D02*
X-364714Y-146476D01*
X-365158Y-145809D01*
X-365158Y-144876D01*
X-364714Y-144209D01*
X-363492Y-143543D01*
X-362380Y-142743D01*
X-361936Y-142076D01*
X-361936Y-141143D01*
X-362380Y-140476D01*
X-363603Y-139809D01*
G54D12*
X-337044Y-195676D02*
X-335934Y-195009D01*
X-335378Y-193676D01*
X-335378Y-192343D01*
X-335934Y-191009D01*
X-337044Y-190343D01*
X-338156Y-190343D01*
X-339267Y-191009D01*
X-339822Y-192343D01*
X-339822Y-193676D01*
X-340378Y-195009D01*
X-341489Y-195676D01*
X-342600Y-195676D01*
X-343712Y-195009D01*
X-344267Y-193676D01*
X-344267Y-192343D01*
X-343712Y-191009D01*
X-342600Y-190343D01*
G54D12*
X-337044Y-187232D02*
X-335934Y-186565D01*
X-335378Y-185232D01*
X-335378Y-183899D01*
X-335934Y-182565D01*
X-337044Y-181899D01*
X-338156Y-181899D01*
X-339267Y-182565D01*
X-339822Y-183899D01*
X-339822Y-185232D01*
X-340378Y-186565D01*
X-341489Y-187232D01*
X-342600Y-187232D01*
X-343712Y-186565D01*
X-344267Y-185232D01*
X-344267Y-183899D01*
X-343712Y-182565D01*
X-342600Y-181899D01*
G54D12*
X-335378Y-178788D02*
X-344267Y-173455D01*
G54D12*
X-335378Y-170344D02*
X-344267Y-170344D01*
X-344267Y-167011D01*
X-343712Y-165677D01*
X-342600Y-165011D01*
X-337044Y-165011D01*
X-335934Y-165677D01*
X-335378Y-167011D01*
X-335378Y-170344D01*
G54D12*
X-340934Y-161900D02*
X-344267Y-158567D01*
X-335378Y-158567D01*
G54D12*
X-342600Y-150123D02*
X-337044Y-150123D01*
X-335934Y-150789D01*
X-335378Y-152123D01*
X-335378Y-153456D01*
X-335934Y-154789D01*
X-337044Y-155456D01*
X-342600Y-155456D01*
X-343712Y-154789D01*
X-344267Y-153456D01*
X-344267Y-152123D01*
X-343712Y-150789D01*
X-342600Y-150123D01*
G54D12*
X-338600Y-146879D02*
X-339712Y-146079D01*
X-340156Y-145412D01*
X-340156Y-144479D01*
X-339712Y-143812D01*
X-338489Y-143145D01*
X-337378Y-142345D01*
X-336934Y-141679D01*
X-336934Y-140745D01*
X-337378Y-140079D01*
X-338600Y-139412D01*
G54D12*
X-309978Y-206417D02*
X-318867Y-206417D01*
X-313312Y-203084D01*
X-318867Y-199751D01*
X-309978Y-199751D01*
G54D12*
X-317200Y-191306D02*
X-311644Y-191306D01*
X-310534Y-191973D01*
X-309978Y-193306D01*
X-309978Y-194639D01*
X-310534Y-195973D01*
X-311644Y-196639D01*
X-317200Y-196639D01*
X-318312Y-195973D01*
X-318867Y-194639D01*
X-318867Y-193306D01*
X-318312Y-191973D01*
X-317200Y-191306D01*
G54D12*
X-311644Y-188195D02*
X-310534Y-187529D01*
X-309978Y-186195D01*
X-309978Y-184862D01*
X-310534Y-183529D01*
X-311644Y-182862D01*
X-312756Y-182862D01*
X-313867Y-183529D01*
X-314422Y-184862D01*
X-314422Y-186195D01*
X-314978Y-187529D01*
X-316089Y-188195D01*
X-317200Y-188195D01*
X-318312Y-187529D01*
X-318867Y-186195D01*
X-318867Y-184862D01*
X-318312Y-183529D01*
X-317200Y-182862D01*
G54D12*
X-309978Y-179751D02*
X-318867Y-179751D01*
G54D12*
X-309978Y-176640D02*
X-318867Y-171307D01*
G54D12*
X-309978Y-168196D02*
X-318867Y-168196D01*
X-318867Y-164863D01*
X-318312Y-163530D01*
X-317200Y-162863D01*
X-311644Y-162863D01*
X-310534Y-163530D01*
X-309978Y-164863D01*
X-309978Y-168196D01*
G54D12*
X-315534Y-159752D02*
X-318867Y-156419D01*
X-309978Y-156419D01*
G54D12*
X-315534Y-153308D02*
X-318867Y-149975D01*
X-309978Y-149975D01*
G54D12*
X-313200Y-146731D02*
X-314312Y-145931D01*
X-314756Y-145264D01*
X-314756Y-144331D01*
X-314312Y-143664D01*
X-313089Y-142998D01*
X-311978Y-142198D01*
X-311534Y-141531D01*
X-311534Y-140598D01*
X-311978Y-139931D01*
X-313200Y-139264D01*
G54D12*
X-283784Y-198234D02*
X-292673Y-198234D01*
X-287118Y-194900D01*
X-292673Y-191567D01*
X-283784Y-191567D01*
G54D12*
X-283784Y-188456D02*
X-292673Y-188456D01*
G54D12*
X-285451Y-185345D02*
X-284340Y-184678D01*
X-283784Y-183345D01*
X-283784Y-182012D01*
X-284340Y-180678D01*
X-285451Y-180012D01*
X-286562Y-180012D01*
X-287673Y-180678D01*
X-288229Y-182012D01*
X-288229Y-183345D01*
X-288784Y-184678D01*
X-289895Y-185345D01*
X-291006Y-185345D01*
X-292118Y-184678D01*
X-292673Y-183345D01*
X-292673Y-182012D01*
X-292118Y-180678D01*
X-291006Y-180012D01*
G54D12*
X-291006Y-171568D02*
X-285451Y-171568D01*
X-284340Y-172234D01*
X-283784Y-173568D01*
X-283784Y-174901D01*
X-284340Y-176234D01*
X-285451Y-176901D01*
X-291006Y-176901D01*
X-292118Y-176234D01*
X-292673Y-174901D01*
X-292673Y-173568D01*
X-292118Y-172234D01*
X-291006Y-171568D01*
G54D12*
X-283784Y-168457D02*
X-292673Y-163124D01*
G54D12*
X-283784Y-160013D02*
X-292673Y-160013D01*
X-292673Y-156680D01*
X-292118Y-155346D01*
X-291006Y-154680D01*
X-285451Y-154680D01*
X-284340Y-155346D01*
X-283784Y-156680D01*
X-283784Y-160013D01*
G54D12*
X-289340Y-151569D02*
X-292673Y-148236D01*
X-283784Y-148236D01*
G54D12*
X-283784Y-139792D02*
X-283784Y-145125D01*
X-284340Y-145125D01*
X-285451Y-144458D01*
X-288784Y-140458D01*
X-289895Y-139792D01*
X-291006Y-139792D01*
X-292118Y-140458D01*
X-292673Y-141792D01*
X-292673Y-143125D01*
X-292118Y-144458D01*
X-291006Y-145125D01*
G54D12*
X-649067Y-267228D02*
X-640178Y-263895D01*
X-649067Y-260562D01*
G54D12*
X-640178Y-257450D02*
X-649067Y-257450D01*
G54D12*
X-640178Y-254340D02*
X-649067Y-254340D01*
X-640178Y-249006D01*
X-649067Y-249006D01*
G54D12*
X-617634Y-265138D02*
X-617634Y-262472D01*
X-614856Y-262472D01*
X-613746Y-263138D01*
X-613190Y-264472D01*
X-613190Y-265805D01*
X-613746Y-267138D01*
X-614856Y-267805D01*
X-620412Y-267805D01*
X-621524Y-267138D01*
X-622079Y-265805D01*
X-622079Y-264472D01*
X-621524Y-263138D01*
X-620412Y-262472D01*
G54D12*
X-613190Y-259361D02*
X-622079Y-259361D01*
X-613190Y-254028D01*
X-622079Y-254028D01*
G54D12*
X-613190Y-250917D02*
X-622079Y-250917D01*
X-622079Y-247584D01*
X-621524Y-246250D01*
X-620412Y-245584D01*
X-614856Y-245584D01*
X-613746Y-246250D01*
X-613190Y-247584D01*
X-613190Y-250917D01*
G54D12*
X-592234Y-265037D02*
X-591124Y-263037D01*
X-590012Y-262371D01*
X-587790Y-262371D01*
G54D12*
X-587790Y-267704D02*
X-596679Y-267704D01*
X-596679Y-264371D01*
X-596124Y-263037D01*
X-595012Y-262371D01*
X-593901Y-262371D01*
X-592790Y-263037D01*
X-592234Y-264371D01*
X-592234Y-267704D01*
G54D12*
X-589456Y-259260D02*
X-588346Y-258593D01*
X-587790Y-257260D01*
X-587790Y-255927D01*
X-588346Y-254593D01*
X-589456Y-253927D01*
X-590568Y-253927D01*
X-591679Y-254593D01*
X-592234Y-255927D01*
X-592234Y-257260D01*
X-592790Y-258593D01*
X-593901Y-259260D01*
X-595012Y-259260D01*
X-596124Y-258593D01*
X-596679Y-257260D01*
X-596679Y-255927D01*
X-596124Y-254593D01*
X-595012Y-253927D01*
G54D12*
X-587790Y-248149D02*
X-596679Y-248149D01*
G54D12*
X-596679Y-250816D02*
X-596679Y-245483D01*
G54D12*
X-571279Y-262018D02*
X-571279Y-267352D01*
X-567390Y-267352D01*
X-567390Y-266685D01*
X-567946Y-265352D01*
X-567946Y-264018D01*
X-567390Y-262685D01*
X-566279Y-262018D01*
X-564056Y-262018D01*
X-562946Y-262685D01*
X-562390Y-264018D01*
X-562390Y-265352D01*
X-562946Y-266685D01*
X-564056Y-267352D01*
G54D12*
X-571279Y-258908D02*
X-562390Y-255574D01*
X-571279Y-252241D01*
G54D12*
X-536989Y-267354D02*
X-545878Y-264020D01*
X-536989Y-260687D01*
G54D12*
X-540322Y-266020D02*
X-540322Y-262020D01*
G54D12*
X-545878Y-257576D02*
X-545878Y-252242D01*
X-544767Y-252909D01*
X-543100Y-254242D01*
X-540878Y-255576D01*
X-539211Y-256242D01*
X-536989Y-256242D01*
G54D12*
X-511590Y-267448D02*
X-520479Y-264115D01*
X-511590Y-260781D01*
G54D12*
X-514924Y-266115D02*
X-514924Y-262115D01*
G54D12*
X-518812Y-252337D02*
X-519924Y-253003D01*
X-520479Y-254337D01*
X-520479Y-255670D01*
X-519924Y-257003D01*
X-518812Y-257670D01*
X-516034Y-257670D01*
X-515479Y-257670D01*
X-516590Y-255670D01*
X-516590Y-254337D01*
X-516034Y-253003D01*
X-514924Y-252337D01*
X-513256Y-252337D01*
X-512146Y-253003D01*
X-511590Y-254337D01*
X-511590Y-255670D01*
X-512146Y-257003D01*
X-513256Y-257670D01*
X-516034Y-257670D01*
G54D12*
X-487856Y-270305D02*
X-486746Y-269638D01*
X-486190Y-268305D01*
X-486190Y-266972D01*
X-486746Y-265638D01*
X-487856Y-264972D01*
X-488968Y-264972D01*
X-490079Y-265638D01*
X-490634Y-266972D01*
X-490634Y-268305D01*
X-491190Y-269638D01*
X-492301Y-270305D01*
X-493412Y-270305D01*
X-494524Y-269638D01*
X-495079Y-268305D01*
X-495079Y-266972D01*
X-494524Y-265638D01*
X-493412Y-264972D01*
G54D12*
X-487856Y-256528D02*
X-486746Y-257194D01*
X-486190Y-258528D01*
X-486190Y-259861D01*
X-486746Y-261194D01*
X-487856Y-261861D01*
X-493412Y-261861D01*
X-494524Y-261194D01*
X-495079Y-259861D01*
X-495079Y-258528D01*
X-494524Y-257194D01*
X-493412Y-256528D01*
G54D12*
X-495079Y-253417D02*
X-486190Y-253417D01*
X-486190Y-248750D01*
G54D12*
X-486190Y-245639D02*
X-495079Y-240306D01*
G54D12*
X-486190Y-237195D02*
X-495079Y-237195D01*
X-495079Y-233862D01*
X-494524Y-232528D01*
X-493412Y-231862D01*
X-487856Y-231862D01*
X-486746Y-232528D01*
X-486190Y-233862D01*
X-486190Y-237195D01*
G54D12*
X-491746Y-228751D02*
X-495079Y-225418D01*
X-486190Y-225418D01*
G54D12*
X-487856Y-222307D02*
X-486746Y-221640D01*
X-486190Y-220307D01*
X-486190Y-218974D01*
X-486746Y-217640D01*
X-487856Y-216974D01*
X-490634Y-216974D01*
X-491190Y-216974D01*
X-490079Y-218974D01*
X-490079Y-220307D01*
X-490634Y-221640D01*
X-491746Y-222307D01*
X-493412Y-222307D01*
X-494524Y-221640D01*
X-495079Y-220307D01*
X-495079Y-218974D01*
X-494524Y-217640D01*
X-493412Y-216974D01*
X-490634Y-216974D01*
G54D12*
X-486190Y-213863D02*
X-495079Y-208530D01*
G54D12*
X-486190Y-205419D02*
X-495079Y-202086D01*
X-486190Y-198752D01*
G54D12*
X-489524Y-204086D02*
X-489524Y-200086D01*
G54D12*
X-495079Y-190308D02*
X-495079Y-195641D01*
X-491190Y-195641D01*
X-491190Y-194974D01*
X-491746Y-193641D01*
X-491746Y-192308D01*
X-491190Y-190974D01*
X-490079Y-190308D01*
X-487856Y-190308D01*
X-486746Y-190974D01*
X-486190Y-192308D01*
X-486190Y-193641D01*
X-486746Y-194974D01*
X-487856Y-195641D01*
G54D12*
X-462456Y-270517D02*
X-461346Y-269850D01*
X-460790Y-268517D01*
X-460790Y-267184D01*
X-461346Y-265850D01*
X-462456Y-265184D01*
X-463568Y-265184D01*
X-464679Y-265850D01*
X-465234Y-267184D01*
X-465234Y-268517D01*
X-465790Y-269850D01*
X-466901Y-270517D01*
X-468012Y-270517D01*
X-469124Y-269850D01*
X-469679Y-268517D01*
X-469679Y-267184D01*
X-469124Y-265850D01*
X-468012Y-265184D01*
G54D12*
X-460790Y-262073D02*
X-469679Y-262073D01*
X-469679Y-258740D01*
X-469124Y-257406D01*
X-468012Y-256740D01*
X-462456Y-256740D01*
X-461346Y-257406D01*
X-460790Y-258740D01*
X-460790Y-262073D01*
G54D12*
X-460790Y-253629D02*
X-469679Y-250296D01*
X-460790Y-246962D01*
G54D12*
X-464124Y-252296D02*
X-464124Y-248296D01*
G54D12*
X-460790Y-243851D02*
X-469679Y-238518D01*
G54D12*
X-460790Y-235407D02*
X-469679Y-235407D01*
X-469679Y-232074D01*
X-469124Y-230740D01*
X-468012Y-230074D01*
X-462456Y-230074D01*
X-461346Y-230740D01*
X-460790Y-232074D01*
X-460790Y-235407D01*
G54D12*
X-466346Y-226963D02*
X-469679Y-223630D01*
X-460790Y-223630D01*
G54D12*
X-465234Y-217186D02*
X-465234Y-218519D01*
X-465790Y-219852D01*
X-466901Y-220519D01*
X-468012Y-220519D01*
X-469124Y-219852D01*
X-469679Y-218519D01*
X-469679Y-217186D01*
X-469124Y-215852D01*
X-468012Y-215186D01*
X-466901Y-215186D01*
X-465790Y-215852D01*
X-465234Y-217186D01*
X-464679Y-215852D01*
X-463568Y-215186D01*
X-462456Y-215186D01*
X-461346Y-215852D01*
X-460790Y-217186D01*
X-460790Y-218519D01*
X-461346Y-219852D01*
X-462456Y-220519D01*
X-463568Y-220519D01*
X-464679Y-219852D01*
X-465234Y-218519D01*
G54D12*
X-460790Y-212075D02*
X-469679Y-206742D01*
G54D12*
X-460790Y-203631D02*
X-469679Y-200298D01*
X-460790Y-196964D01*
G54D12*
X-464124Y-202298D02*
X-464124Y-198298D01*
G54D12*
X-460790Y-189853D02*
X-469679Y-189853D01*
X-464124Y-193853D01*
X-463012Y-193853D01*
X-463012Y-188520D01*
G54D12*
X-435390Y-269013D02*
X-444279Y-269013D01*
X-444279Y-265680D01*
X-443724Y-264346D01*
X-442612Y-263680D01*
X-437056Y-263680D01*
X-435946Y-264346D01*
X-435390Y-265680D01*
X-435390Y-269013D01*
G54D12*
X-440946Y-260569D02*
X-444279Y-257236D01*
X-435390Y-257236D01*
G54D12*
X-444279Y-254125D02*
X-444279Y-248792D01*
X-443168Y-249458D01*
X-441501Y-250792D01*
X-439279Y-252125D01*
X-437612Y-252792D01*
X-435390Y-252792D01*
G54D12*
X-435390Y-245681D02*
X-444279Y-240348D01*
G54D12*
X-435390Y-237237D02*
X-444279Y-233904D01*
X-435390Y-230570D01*
G54D12*
X-438724Y-235904D02*
X-438724Y-231904D01*
G54D12*
X-442612Y-227459D02*
X-443724Y-226792D01*
X-444279Y-225459D01*
X-444279Y-224126D01*
X-443724Y-222792D01*
X-442612Y-222126D01*
X-441501Y-222126D01*
X-440390Y-222792D01*
X-439834Y-224126D01*
X-439279Y-222792D01*
X-438168Y-222126D01*
X-437056Y-222126D01*
X-435946Y-222792D01*
X-435390Y-224126D01*
X-435390Y-225459D01*
X-435946Y-226792D01*
X-437056Y-227459D01*
G54D12*
X-409990Y-269013D02*
X-418879Y-269013D01*
X-418879Y-265680D01*
X-418324Y-264346D01*
X-417212Y-263680D01*
X-411656Y-263680D01*
X-410546Y-264346D01*
X-409990Y-265680D01*
X-409990Y-269013D01*
G54D12*
X-415546Y-260569D02*
X-418879Y-257236D01*
X-409990Y-257236D01*
G54D12*
X-417212Y-248792D02*
X-418324Y-249458D01*
X-418879Y-250792D01*
X-418879Y-252125D01*
X-418324Y-253458D01*
X-417212Y-254125D01*
X-414434Y-254125D01*
X-413879Y-254125D01*
X-414990Y-252125D01*
X-414990Y-250792D01*
X-414434Y-249458D01*
X-413324Y-248792D01*
X-411656Y-248792D01*
X-410546Y-249458D01*
X-409990Y-250792D01*
X-409990Y-252125D01*
X-410546Y-253458D01*
X-411656Y-254125D01*
X-414434Y-254125D01*
G54D12*
X-409990Y-245681D02*
X-418879Y-240348D01*
G54D12*
X-409990Y-237237D02*
X-418879Y-233904D01*
X-409990Y-230570D01*
G54D12*
X-413324Y-235904D02*
X-413324Y-231904D01*
G54D12*
X-409990Y-222126D02*
X-409990Y-227459D01*
X-410546Y-227459D01*
X-411656Y-226792D01*
X-414990Y-222792D01*
X-416101Y-222126D01*
X-417212Y-222126D01*
X-418324Y-222792D01*
X-418879Y-224126D01*
X-418879Y-225459D01*
X-418324Y-226792D01*
X-417212Y-227459D01*
G54D12*
X-384590Y-268700D02*
X-393479Y-268700D01*
X-393479Y-265367D01*
X-392924Y-264033D01*
X-391812Y-263367D01*
X-386256Y-263367D01*
X-385146Y-264033D01*
X-384590Y-265367D01*
X-384590Y-268700D01*
G54D12*
X-390146Y-260256D02*
X-393479Y-256923D01*
X-384590Y-256923D01*
G54D12*
X-393479Y-248479D02*
X-393479Y-253812D01*
X-389590Y-253812D01*
X-389590Y-253145D01*
X-390146Y-251812D01*
X-390146Y-250479D01*
X-389590Y-249145D01*
X-388479Y-248479D01*
X-386256Y-248479D01*
X-385146Y-249145D01*
X-384590Y-250479D01*
X-384590Y-251812D01*
X-385146Y-253145D01*
X-386256Y-253812D01*
G54D12*
X-384590Y-245368D02*
X-393479Y-240035D01*
G54D12*
X-384590Y-236924D02*
X-393479Y-233591D01*
X-384590Y-230257D01*
G54D12*
X-387924Y-235591D02*
X-387924Y-231591D01*
G54D12*
X-390146Y-227146D02*
X-393479Y-223813D01*
X-384590Y-223813D01*
G54D12*
X-359190Y-269013D02*
X-368079Y-269013D01*
X-368079Y-265680D01*
X-367524Y-264346D01*
X-366412Y-263680D01*
X-360856Y-263680D01*
X-359746Y-264346D01*
X-359190Y-265680D01*
X-359190Y-269013D01*
G54D12*
X-364746Y-260569D02*
X-368079Y-257236D01*
X-359190Y-257236D01*
G54D12*
X-359190Y-250125D02*
X-368079Y-250125D01*
X-362524Y-254125D01*
X-361412Y-254125D01*
X-361412Y-248792D01*
G54D12*
X-359190Y-245681D02*
X-368079Y-240348D01*
G54D12*
X-359190Y-237237D02*
X-368079Y-233904D01*
X-359190Y-230570D01*
G54D12*
X-362524Y-235904D02*
X-362524Y-231904D01*
G54D12*
X-366412Y-222126D02*
X-360856Y-222126D01*
X-359746Y-222792D01*
X-359190Y-224126D01*
X-359190Y-225459D01*
X-359746Y-226792D01*
X-360856Y-227459D01*
X-366412Y-227459D01*
X-367524Y-226792D01*
X-368079Y-225459D01*
X-368079Y-224126D01*
X-367524Y-222792D01*
X-366412Y-222126D01*
G54D12*
X-333790Y-266250D02*
X-342679Y-262916D01*
X-333790Y-259583D01*
G54D12*
X-337124Y-264916D02*
X-337124Y-260916D01*
G54D12*
X-338234Y-253805D02*
X-337124Y-251805D01*
X-336012Y-251138D01*
X-333790Y-251138D01*
G54D12*
X-333790Y-256472D02*
X-342679Y-256472D01*
X-342679Y-253138D01*
X-342124Y-251805D01*
X-341012Y-251138D01*
X-339901Y-251138D01*
X-338790Y-251805D01*
X-338234Y-253138D01*
X-338234Y-256472D01*
G54D12*
X-333790Y-243361D02*
X-333790Y-248028D01*
X-342679Y-248028D01*
X-342679Y-243361D01*
G54D12*
X-338234Y-248028D02*
X-338234Y-243361D01*
G54D12*
X-333790Y-240250D02*
X-342679Y-240250D01*
X-342679Y-235583D01*
G54D12*
X-338234Y-240250D02*
X-338234Y-235583D01*
G54D12*
X-315612Y-265992D02*
X-316724Y-265325D01*
X-317279Y-263992D01*
X-317279Y-262658D01*
X-316724Y-261325D01*
X-315612Y-260658D01*
X-314501Y-260658D01*
X-313390Y-261325D01*
X-312834Y-262658D01*
X-312279Y-261325D01*
X-311168Y-260658D01*
X-310056Y-260658D01*
X-308946Y-261325D01*
X-308390Y-262658D01*
X-308390Y-263992D01*
X-308946Y-265325D01*
X-310056Y-265992D01*
G54D12*
X-317279Y-257548D02*
X-308390Y-254214D01*
X-317279Y-250881D01*
G54D12*
X-315612Y-247770D02*
X-316724Y-247103D01*
X-317279Y-245770D01*
X-317279Y-244436D01*
X-316724Y-243103D01*
X-315612Y-242436D01*
X-314501Y-242436D01*
X-313390Y-243103D01*
X-312834Y-244436D01*
X-312279Y-243103D01*
X-311168Y-242436D01*
X-310056Y-242436D01*
X-308946Y-243103D01*
X-308390Y-244436D01*
X-308390Y-245770D01*
X-308946Y-247103D01*
X-310056Y-247770D01*
G54D12*
X-284656Y-267746D02*
X-283546Y-267079D01*
X-282990Y-265746D01*
X-282990Y-264413D01*
X-283546Y-263079D01*
X-284656Y-262413D01*
X-285768Y-262413D01*
X-286879Y-263079D01*
X-287434Y-264413D01*
X-287434Y-265746D01*
X-287990Y-267079D01*
X-289101Y-267746D01*
X-290212Y-267746D01*
X-291324Y-267079D01*
X-291879Y-265746D01*
X-291879Y-264413D01*
X-291324Y-263079D01*
X-290212Y-262413D01*
G54D12*
X-284656Y-253969D02*
X-283546Y-254635D01*
X-282990Y-255969D01*
X-282990Y-257302D01*
X-283546Y-258635D01*
X-284656Y-259302D01*
X-290212Y-259302D01*
X-291324Y-258635D01*
X-291879Y-257302D01*
X-291879Y-255969D01*
X-291324Y-254635D01*
X-290212Y-253969D01*
G54D12*
X-282990Y-250858D02*
X-291879Y-250858D01*
G54D12*
X-285768Y-250858D02*
X-291879Y-245525D01*
G54D12*
X-287434Y-248858D02*
X-282990Y-245525D01*
G54D12*
X-282990Y-242414D02*
X-291879Y-237081D01*
G54D12*
X-288546Y-233970D02*
X-291879Y-230637D01*
X-282990Y-230637D01*
G54D12*
X-290212Y-227526D02*
X-291324Y-226859D01*
X-291879Y-225526D01*
X-291879Y-224193D01*
X-291324Y-222859D01*
X-290212Y-222193D01*
X-289101Y-222193D01*
X-287990Y-222859D01*
X-287434Y-224193D01*
X-286879Y-222859D01*
X-285768Y-222193D01*
X-284656Y-222193D01*
X-283546Y-222859D01*
X-282990Y-224193D01*
X-282990Y-225526D01*
X-283546Y-226859D01*
X-284656Y-227526D01*
G54D13*
X-624492Y-200376D02*
X-620158Y-188820D01*
X-615825Y-200376D01*
G54D13*
X-622758Y-196043D02*
X-617558Y-196043D01*
G54D13*
X-611780Y-200376D02*
X-611780Y-193876D01*
G54D13*
X-611780Y-195320D02*
X-610047Y-193876D01*
X-608314Y-193876D01*
G54D13*
X-599070Y-200376D02*
X-599070Y-188820D01*
G54D13*
X-599070Y-195754D02*
X-599936Y-194309D01*
X-601670Y-193876D01*
X-603403Y-194309D01*
X-604270Y-195754D01*
X-604270Y-198643D01*
X-603403Y-200087D01*
X-601670Y-200376D01*
X-599936Y-200087D01*
X-599070Y-198643D01*
G54D13*
X-589826Y-193876D02*
X-589826Y-200376D01*
G54D13*
X-589826Y-198932D02*
X-590692Y-200087D01*
X-592426Y-200376D01*
X-594159Y-200087D01*
X-595026Y-198932D01*
X-595026Y-193876D01*
G54D13*
X-585782Y-200376D02*
X-585782Y-193876D01*
G54D13*
X-585782Y-191709D02*
X-585782Y-191709D01*
G54D13*
X-581738Y-200376D02*
X-581738Y-193876D01*
G54D13*
X-581738Y-195320D02*
X-580871Y-194309D01*
X-579138Y-193876D01*
X-577404Y-194309D01*
X-576538Y-195320D01*
X-576538Y-200376D01*
G54D13*
X-567294Y-198643D02*
X-567294Y-195754D01*
X-568160Y-194309D01*
X-569894Y-193876D01*
X-571627Y-194309D01*
X-572494Y-195754D01*
X-572494Y-198643D01*
X-571627Y-200087D01*
X-569894Y-200376D01*
X-568160Y-200087D01*
X-567294Y-198643D01*
G54D13*
X-629798Y-217838D02*
X-629798Y-206282D01*
X-622864Y-217838D01*
X-622864Y-206282D01*
G54D13*
X-618820Y-212060D02*
X-617087Y-211338D01*
X-615007Y-211338D01*
X-613620Y-212782D01*
X-613620Y-217838D01*
G54D13*
X-613620Y-215671D02*
X-614487Y-214227D01*
X-616220Y-213938D01*
X-617954Y-214227D01*
X-618820Y-215671D01*
X-618474Y-217116D01*
X-617087Y-217838D01*
X-616220Y-217838D01*
X-615874Y-217838D01*
X-614487Y-217116D01*
X-613620Y-215671D01*
G54D13*
X-609576Y-217838D02*
X-609576Y-211338D01*
G54D13*
X-609576Y-212782D02*
X-608710Y-211771D01*
X-606976Y-211338D01*
X-605243Y-211771D01*
X-604376Y-212782D01*
X-604376Y-217838D01*
G54D13*
X-595132Y-216105D02*
X-595132Y-213216D01*
X-595999Y-211771D01*
X-597732Y-211338D01*
X-599466Y-211771D01*
X-600332Y-213216D01*
X-600332Y-216105D01*
X-599466Y-217549D01*
X-597732Y-217838D01*
X-595999Y-217549D01*
X-595132Y-216105D01*
G54D13*
X-586872Y-206282D02*
X-582538Y-217838D01*
X-578205Y-206282D01*
G54D13*
X-574160Y-208449D02*
X-573294Y-207005D01*
X-571560Y-206282D01*
X-569827Y-206282D01*
X-568094Y-207005D01*
X-567227Y-208449D01*
X-567227Y-209894D01*
X-568094Y-211338D01*
X-569827Y-212060D01*
X-568094Y-212782D01*
X-567227Y-214227D01*
X-567227Y-215671D01*
X-568094Y-217116D01*
X-569827Y-217838D01*
X-571560Y-217838D01*
X-573294Y-217116D01*
X-574160Y-215671D01*
M02*
