%FSLAX34Y34*%
%MOMM*%
%LNCOPPER_BOTTOM*%
G71*
G01*
%ADD10C, 0.00*%
%ADD11C, 0.20*%
%ADD12C, 0.10*%
%ADD13C, 0.24*%
%ADD14C, 0.27*%
%LPD*%
G54D10*
X331Y434D02*
X-999669Y434D01*
X-999669Y-449566D01*
X331Y-449566D01*
X331Y434D01*
G54D11*
X-6941Y-211244D02*
X-6941Y-116244D01*
X-101941Y-116244D01*
X-101941Y-211244D01*
X-6941Y-211244D01*
G54D11*
G75*
G01X-65913Y-163754D02*
G03X-65913Y-163754I11500J0D01*
G01*
G54D11*
X-62576Y-155609D02*
X-46299Y-171885D01*
G54D11*
X-212394Y-124854D02*
X-161197Y-124854D01*
G54D11*
X-909520Y-159034D02*
X-909520Y-94034D01*
X-974520Y-94034D01*
X-974520Y-159034D01*
X-909520Y-159034D01*
G54D11*
G75*
G01X-942020Y-109034D02*
G03X-942020Y-109034I0J-17500D01*
G01*
G54D11*
X-909521Y-259841D02*
X-909521Y-194842D01*
X-974521Y-194842D01*
X-974521Y-259841D01*
X-909521Y-259841D01*
G54D11*
G75*
G01X-942021Y-209841D02*
G03X-942021Y-209841I0J-17500D01*
G01*
G54D11*
X-909521Y-361441D02*
X-909521Y-296442D01*
X-974521Y-296442D01*
X-974521Y-361441D01*
X-909521Y-361441D01*
G54D11*
G75*
G01X-942021Y-311441D02*
G03X-942021Y-311441I0J-17500D01*
G01*
G54D12*
X-3175Y-2382D02*
X-995590Y-2382D01*
X-995824Y-2616D01*
X-995824Y-445528D01*
X-3241Y-445528D01*
X-3241Y-2447D01*
X-3175Y-2382D01*
G54D11*
X-87378Y-34366D02*
X-87378Y-393538D01*
X-878350Y-393538D01*
X-878350Y-34366D01*
X-87378Y-34366D01*
G54D13*
X-133813Y-57386D02*
X-138813Y-52386D01*
X-138813Y-65719D01*
G54D13*
X-559263Y-56989D02*
X-564263Y-51989D01*
X-564263Y-65322D01*
G54D13*
X-576930Y-54489D02*
X-575930Y-52822D01*
X-573930Y-51989D01*
X-571930Y-51989D01*
X-569930Y-52822D01*
X-568930Y-54489D01*
X-568930Y-58656D01*
X-568930Y-59489D01*
X-571930Y-57822D01*
X-573930Y-57822D01*
X-575930Y-58656D01*
X-576930Y-60322D01*
X-576930Y-62822D01*
X-575930Y-64489D01*
X-573930Y-65322D01*
X-571930Y-65322D01*
X-569930Y-64489D01*
X-568930Y-62822D01*
X-568930Y-58656D01*
G54D13*
X-160484Y-27731D02*
X-160484Y-25064D01*
X-164650Y-25064D01*
X-166317Y-25731D01*
X-167150Y-27064D01*
X-167150Y-28397D01*
X-166317Y-29731D01*
X-164650Y-30397D01*
X-156317Y-30397D01*
X-154650Y-29731D01*
X-153817Y-28397D01*
X-153817Y-27064D01*
X-154650Y-25731D01*
X-156317Y-25064D01*
G54D13*
X-167150Y-20397D02*
X-153817Y-20397D01*
X-167150Y-15064D01*
X-153817Y-15064D01*
G54D13*
X-167150Y-10397D02*
X-153817Y-10397D01*
X-153817Y-7064D01*
X-154650Y-5731D01*
X-156317Y-5064D01*
X-164650Y-5064D01*
X-166317Y-5731D01*
X-167150Y-7064D01*
X-167150Y-10397D01*
G54D13*
X-186717Y-31588D02*
X-186717Y-26254D01*
G54D13*
X-183384Y-28921D02*
X-190050Y-28921D01*
G54D13*
X-179217Y-16255D02*
X-179217Y-21588D01*
X-185050Y-21588D01*
X-185050Y-20921D01*
X-184217Y-19588D01*
X-184217Y-18255D01*
X-185050Y-16921D01*
X-186717Y-16255D01*
X-190050Y-16255D01*
X-191717Y-16921D01*
X-192550Y-18255D01*
X-192550Y-19588D01*
X-191717Y-20921D01*
X-190050Y-21588D01*
G54D13*
X-179217Y-11588D02*
X-192550Y-8255D01*
X-179217Y-4921D01*
G54D13*
X-205014Y-27222D02*
X-218347Y-23889D01*
X-205014Y-20556D01*
G54D13*
X-207514Y-10555D02*
X-215847Y-10555D01*
X-217514Y-11222D01*
X-218347Y-12555D01*
X-218347Y-13888D01*
X-217514Y-15222D01*
X-215847Y-15888D01*
X-207514Y-15888D01*
X-205847Y-15222D01*
X-205014Y-13888D01*
X-205014Y-12555D01*
X-205847Y-11222D01*
X-207514Y-10555D01*
G54D13*
X-238271Y-23365D02*
X-239938Y-21365D01*
X-241604Y-20698D01*
X-244938Y-20698D01*
G54D13*
X-244938Y-26032D02*
X-231604Y-26032D01*
X-231604Y-22698D01*
X-232438Y-21365D01*
X-234104Y-20698D01*
X-235771Y-20698D01*
X-237438Y-21365D01*
X-238271Y-22698D01*
X-238271Y-26032D01*
G54D13*
X-242438Y-16032D02*
X-244104Y-15365D01*
X-244938Y-14032D01*
X-244938Y-12698D01*
X-244104Y-11365D01*
X-242438Y-10698D01*
X-240771Y-10698D01*
X-239104Y-11365D01*
X-238271Y-12698D01*
X-238271Y-14032D01*
X-237438Y-15365D01*
X-235771Y-16032D01*
X-234104Y-16032D01*
X-232438Y-15365D01*
X-231604Y-14032D01*
X-231604Y-12698D01*
X-232438Y-11365D01*
X-234104Y-10698D01*
G54D13*
X-262480Y-28524D02*
X-262480Y-25858D01*
X-266647Y-25858D01*
X-268314Y-26524D01*
X-269147Y-27858D01*
X-269147Y-29191D01*
X-268314Y-30524D01*
X-266647Y-31191D01*
X-258314Y-31191D01*
X-256647Y-30524D01*
X-255814Y-29191D01*
X-255814Y-27858D01*
X-256647Y-26524D01*
X-258314Y-25858D01*
G54D13*
X-269147Y-21191D02*
X-255814Y-21191D01*
X-269147Y-15858D01*
X-255814Y-15858D01*
G54D13*
X-269147Y-11191D02*
X-255814Y-11191D01*
X-255814Y-7858D01*
X-256647Y-6524D01*
X-258314Y-5858D01*
X-266647Y-5858D01*
X-268314Y-6524D01*
X-269147Y-7858D01*
X-269147Y-11191D01*
G54D13*
X-294150Y-15412D02*
X-294150Y-20078D01*
X-280817Y-20078D01*
X-280817Y-15412D01*
G54D13*
X-287484Y-20078D02*
X-287484Y-15412D01*
G54D13*
X-318360Y-24841D02*
X-305026Y-24841D01*
X-305026Y-21508D01*
X-305860Y-20174D01*
X-307526Y-19508D01*
X-315860Y-19508D01*
X-317526Y-20174D01*
X-318360Y-21508D01*
X-318360Y-24841D01*
G54D13*
X-307526Y-9508D02*
X-315860Y-9508D01*
X-317526Y-10174D01*
X-318360Y-11508D01*
X-318360Y-12841D01*
X-317526Y-14174D01*
X-315860Y-14841D01*
X-307526Y-14841D01*
X-305860Y-14174D01*
X-305026Y-12841D01*
X-305026Y-11508D01*
X-305860Y-10174D01*
X-307526Y-9508D01*
G54D13*
X-345347Y-24841D02*
X-332014Y-24841D01*
X-332014Y-21508D01*
X-332847Y-20174D01*
X-334514Y-19508D01*
X-342847Y-19508D01*
X-344514Y-20174D01*
X-345347Y-21508D01*
X-345347Y-24841D01*
G54D13*
X-337014Y-14841D02*
X-332014Y-11508D01*
X-345347Y-11508D01*
G54D13*
X-369953Y-24841D02*
X-356620Y-24841D01*
X-356620Y-21508D01*
X-357453Y-20174D01*
X-359120Y-19508D01*
X-367453Y-19508D01*
X-369120Y-20174D01*
X-369953Y-21508D01*
X-369953Y-24841D01*
G54D13*
X-369953Y-9508D02*
X-369953Y-14841D01*
X-369120Y-14841D01*
X-367453Y-14174D01*
X-362453Y-10174D01*
X-360787Y-9508D01*
X-359120Y-9508D01*
X-357453Y-10174D01*
X-356620Y-11508D01*
X-356620Y-12841D01*
X-357453Y-14174D01*
X-359120Y-14841D01*
G54D13*
X-396147Y-24841D02*
X-382814Y-24841D01*
X-382814Y-21508D01*
X-383647Y-20174D01*
X-385314Y-19508D01*
X-393647Y-19508D01*
X-395314Y-20174D01*
X-396147Y-21508D01*
X-396147Y-24841D01*
G54D13*
X-385314Y-14841D02*
X-383647Y-14174D01*
X-382814Y-12841D01*
X-382814Y-11508D01*
X-383647Y-10174D01*
X-385314Y-9508D01*
X-386980Y-9508D01*
X-388647Y-10174D01*
X-389480Y-11508D01*
X-390314Y-10174D01*
X-391980Y-9508D01*
X-393647Y-9508D01*
X-395314Y-10174D01*
X-396147Y-11508D01*
X-396147Y-12841D01*
X-395314Y-14174D01*
X-393647Y-14841D01*
G54D13*
X-421547Y-24841D02*
X-408214Y-24841D01*
X-408214Y-21508D01*
X-409047Y-20174D01*
X-410714Y-19508D01*
X-419047Y-19508D01*
X-420714Y-20174D01*
X-421547Y-21508D01*
X-421547Y-24841D01*
G54D13*
X-421547Y-10841D02*
X-408214Y-10841D01*
X-416547Y-14841D01*
X-418214Y-14841D01*
X-418214Y-9508D01*
G54D13*
X-446947Y-24841D02*
X-433614Y-24841D01*
X-433614Y-21508D01*
X-434447Y-20174D01*
X-436114Y-19508D01*
X-444447Y-19508D01*
X-446114Y-20174D01*
X-446947Y-21508D01*
X-446947Y-24841D01*
G54D13*
X-433614Y-9508D02*
X-433614Y-14841D01*
X-439447Y-14841D01*
X-439447Y-14174D01*
X-438614Y-12841D01*
X-438614Y-11508D01*
X-439447Y-10174D01*
X-441114Y-9508D01*
X-444447Y-9508D01*
X-446114Y-10174D01*
X-446947Y-11508D01*
X-446947Y-12841D01*
X-446114Y-14174D01*
X-444447Y-14841D01*
G54D13*
X-472347Y-24841D02*
X-459014Y-24841D01*
X-459014Y-21508D01*
X-459847Y-20174D01*
X-461514Y-19508D01*
X-469847Y-19508D01*
X-471514Y-20174D01*
X-472347Y-21508D01*
X-472347Y-24841D01*
G54D13*
X-461514Y-9508D02*
X-459847Y-10174D01*
X-459014Y-11508D01*
X-459014Y-12841D01*
X-459847Y-14174D01*
X-461514Y-14841D01*
X-465680Y-14841D01*
X-466514Y-14841D01*
X-464847Y-12841D01*
X-464847Y-11508D01*
X-465680Y-10174D01*
X-467347Y-9508D01*
X-469847Y-9508D01*
X-471514Y-10174D01*
X-472347Y-11508D01*
X-472347Y-12841D01*
X-471514Y-14174D01*
X-469847Y-14841D01*
X-465680Y-14841D01*
G54D13*
X-496160Y-24841D02*
X-482826Y-24841D01*
X-482826Y-21508D01*
X-483660Y-20174D01*
X-485326Y-19508D01*
X-493660Y-19508D01*
X-495326Y-20174D01*
X-496160Y-21508D01*
X-496160Y-24841D01*
G54D13*
X-482826Y-14841D02*
X-482826Y-9508D01*
X-484493Y-10174D01*
X-486993Y-11508D01*
X-490326Y-12841D01*
X-492826Y-13508D01*
X-496160Y-13508D01*
G54D13*
X-509814Y-29604D02*
X-523147Y-29604D01*
X-523147Y-24937D01*
G54D13*
X-523147Y-20270D02*
X-509814Y-20270D01*
X-509814Y-16936D01*
X-510647Y-15603D01*
X-512314Y-14936D01*
X-520647Y-14936D01*
X-522314Y-15603D01*
X-523147Y-16936D01*
X-523147Y-20270D01*
G54D13*
X-517314Y-10270D02*
X-517314Y-4936D01*
G54D13*
X-513980Y-7603D02*
X-520647Y-7603D01*
G54D13*
X-535214Y-29604D02*
X-548547Y-29604D01*
X-548547Y-24937D01*
G54D13*
X-548547Y-20270D02*
X-535214Y-20270D01*
X-535214Y-16936D01*
X-536047Y-15603D01*
X-537714Y-14936D01*
X-546047Y-14936D01*
X-547714Y-15603D01*
X-548547Y-16936D01*
X-548547Y-20270D01*
G54D13*
X-542714Y-10270D02*
X-542714Y-4936D01*
G54D11*
X-179453Y-401872D02*
X-165166Y-401872D01*
X-165166Y-430447D01*
X-295341Y-430447D01*
X-295341Y-401872D01*
X-179453Y-401872D01*
G54D13*
X-177470Y-440369D02*
X-172470Y-437036D01*
X-185803Y-437036D01*
G54D13*
X-210410Y-435433D02*
X-210410Y-440766D01*
X-209576Y-440766D01*
X-207910Y-440099D01*
X-202910Y-436099D01*
X-201243Y-435433D01*
X-199576Y-435433D01*
X-197910Y-436099D01*
X-197076Y-437433D01*
X-197076Y-438766D01*
X-197910Y-440099D01*
X-199576Y-440766D01*
G54D13*
X-225770Y-440766D02*
X-224103Y-440099D01*
X-223270Y-438766D01*
X-223270Y-437433D01*
X-224103Y-436099D01*
X-225770Y-435433D01*
X-227437Y-435433D01*
X-229103Y-436099D01*
X-229937Y-437433D01*
X-230770Y-436099D01*
X-232437Y-435433D01*
X-234103Y-435433D01*
X-235770Y-436099D01*
X-236603Y-437433D01*
X-236603Y-438766D01*
X-235770Y-440099D01*
X-234103Y-440766D01*
G54D13*
X-263591Y-436766D02*
X-250258Y-436766D01*
X-258591Y-440766D01*
X-260258Y-440766D01*
X-260258Y-435433D01*
G54D13*
X-274467Y-435433D02*
X-274467Y-440766D01*
X-280300Y-440766D01*
X-280300Y-440099D01*
X-279467Y-438766D01*
X-279467Y-437433D01*
X-280300Y-436099D01*
X-281967Y-435433D01*
X-285300Y-435433D01*
X-286967Y-436099D01*
X-287800Y-437433D01*
X-287800Y-438766D01*
X-286967Y-440099D01*
X-285300Y-440766D01*
G54D13*
X-21894Y-298686D02*
X-25227Y-293686D01*
X-25227Y-307019D01*
G54D13*
X-29894Y-301186D02*
X-35227Y-301186D01*
G54D13*
X-39894Y-307019D02*
X-39894Y-293686D01*
X-43227Y-293686D01*
X-44561Y-294519D01*
X-45227Y-296186D01*
X-45227Y-297852D01*
X-44561Y-299519D01*
X-43227Y-300352D01*
X-39894Y-300352D01*
G54D13*
X-49894Y-293686D02*
X-49894Y-307019D01*
X-53227Y-298686D01*
X-56561Y-307019D01*
X-56561Y-293686D01*
G54D13*
X-61228Y-307019D02*
X-61228Y-293686D01*
X-64561Y-302019D01*
X-67895Y-293686D01*
X-67895Y-307019D01*
G54D13*
X-28021Y-327260D02*
X-22688Y-327260D01*
X-22688Y-326426D01*
X-23354Y-324760D01*
X-27354Y-319760D01*
X-28021Y-318093D01*
X-28021Y-316426D01*
X-27354Y-314760D01*
X-26021Y-313926D01*
X-24688Y-313926D01*
X-23354Y-314760D01*
X-22688Y-316426D01*
G54D13*
X-32688Y-321426D02*
X-38021Y-321426D01*
G54D13*
X-42688Y-324760D02*
X-43354Y-326426D01*
X-44688Y-327260D01*
X-46021Y-327260D01*
X-47354Y-326426D01*
X-48021Y-324760D01*
X-48021Y-323093D01*
X-47354Y-321426D01*
X-46021Y-320593D01*
X-44688Y-320593D01*
X-43354Y-319760D01*
X-42688Y-318093D01*
X-42688Y-316426D01*
X-43354Y-314760D01*
X-44688Y-313926D01*
X-46021Y-313926D01*
X-47354Y-314760D01*
X-48021Y-316426D01*
G54D13*
X-58021Y-324760D02*
X-57354Y-326426D01*
X-56021Y-327260D01*
X-54688Y-327260D01*
X-53354Y-326426D01*
X-52688Y-324760D01*
X-52688Y-316426D01*
X-53354Y-314760D01*
X-54688Y-313926D01*
X-56021Y-313926D01*
X-57354Y-314760D01*
X-58021Y-316426D01*
G54D13*
X-62688Y-313926D02*
X-62688Y-327260D01*
X-67354Y-327260D01*
G54D13*
X-23085Y-336270D02*
X-23751Y-334604D01*
X-25085Y-333770D01*
X-26418Y-333770D01*
X-27751Y-334604D01*
X-28418Y-336270D01*
X-28418Y-337937D01*
X-27751Y-339604D01*
X-26418Y-340437D01*
X-27751Y-341270D01*
X-28418Y-342937D01*
X-28418Y-344604D01*
X-27751Y-346270D01*
X-26418Y-347104D01*
X-25085Y-347104D01*
X-23751Y-346270D01*
X-23085Y-344604D01*
G54D13*
X-33085Y-341270D02*
X-38418Y-341270D01*
G54D13*
X-43085Y-344604D02*
X-43751Y-346270D01*
X-45085Y-347104D01*
X-46418Y-347104D01*
X-47751Y-346270D01*
X-48418Y-344604D01*
X-48418Y-342937D01*
X-47751Y-341270D01*
X-46418Y-340437D01*
X-45085Y-340437D01*
X-43751Y-339604D01*
X-43085Y-337937D01*
X-43085Y-336270D01*
X-43751Y-334604D01*
X-45085Y-333770D01*
X-46418Y-333770D01*
X-47751Y-334604D01*
X-48418Y-336270D01*
G54D13*
X-53085Y-347104D02*
X-53085Y-333770D01*
X-56418Y-333770D01*
X-57751Y-334604D01*
X-58418Y-336270D01*
X-58418Y-344604D01*
X-57751Y-346270D01*
X-56418Y-347104D01*
X-53085Y-347104D01*
G54D13*
X-63085Y-347104D02*
X-66418Y-333770D01*
X-69751Y-347104D01*
G54D13*
X-64418Y-342104D02*
X-68418Y-342104D01*
G54D13*
X-27085Y-367741D02*
X-27085Y-354408D01*
X-23085Y-362741D01*
X-23085Y-364408D01*
X-28418Y-364408D01*
G54D13*
X-33085Y-361908D02*
X-38418Y-361908D01*
G54D13*
X-45751Y-361074D02*
X-48418Y-361074D01*
X-48418Y-365241D01*
X-47751Y-366908D01*
X-46418Y-367741D01*
X-45085Y-367741D01*
X-43751Y-366908D01*
X-43085Y-365241D01*
X-43085Y-356908D01*
X-43751Y-355241D01*
X-45085Y-354408D01*
X-46418Y-354408D01*
X-47751Y-355241D01*
X-48418Y-356908D01*
G54D13*
X-53085Y-367741D02*
X-53085Y-354408D01*
X-58418Y-367741D01*
X-58418Y-354408D01*
G54D13*
X-63085Y-367741D02*
X-63085Y-354408D01*
X-66418Y-354408D01*
X-67751Y-355241D01*
X-68418Y-356908D01*
X-68418Y-365241D01*
X-67751Y-366908D01*
X-66418Y-367741D01*
X-63085Y-367741D01*
G54D13*
X-28815Y-375442D02*
X-23482Y-375442D01*
X-23482Y-381275D01*
X-24148Y-381275D01*
X-25482Y-380442D01*
X-26815Y-380442D01*
X-28148Y-381275D01*
X-28815Y-382942D01*
X-28815Y-386275D01*
X-28148Y-387942D01*
X-26815Y-388775D01*
X-25482Y-388775D01*
X-24148Y-387942D01*
X-23482Y-386275D01*
G54D13*
X-33482Y-382942D02*
X-38815Y-382942D01*
G54D13*
X-43482Y-382942D02*
X-48815Y-382942D01*
G54D13*
X-46148Y-379609D02*
X-46148Y-386275D01*
G54D13*
X-58815Y-375442D02*
X-53482Y-375442D01*
X-53482Y-381275D01*
X-54148Y-381275D01*
X-55482Y-380442D01*
X-56815Y-380442D01*
X-58148Y-381275D01*
X-58815Y-382942D01*
X-58815Y-386275D01*
X-58148Y-387942D01*
X-56815Y-388775D01*
X-55482Y-388775D01*
X-54148Y-387942D01*
X-53482Y-386275D01*
G54D13*
X-63482Y-375442D02*
X-66815Y-388775D01*
X-70148Y-375442D01*
G54D11*
X-247319Y-143507D02*
X-158816Y-143507D01*
X-158816Y-283604D01*
X-247716Y-283604D01*
G54D11*
X-252478Y-283604D02*
X-382256Y-283604D01*
G54D11*
X-382256Y-283604D02*
X-554500Y-283604D01*
G54D11*
X-554500Y-283604D02*
X-617603Y-283604D01*
G54D11*
X-617603Y-283604D02*
X-798182Y-283604D01*
X-798578Y-283207D01*
X-798578Y-143507D01*
X-684675Y-143507D01*
G54D11*
X-247319Y-143507D02*
X-158816Y-143507D01*
G54D13*
X-889226Y-128822D02*
X-900060Y-128822D01*
X-901726Y-127822D01*
X-902560Y-125822D01*
X-902560Y-123822D01*
X-901726Y-121822D01*
X-900060Y-120822D01*
X-889226Y-120822D01*
G54D13*
X-902560Y-116155D02*
X-889226Y-116155D01*
X-889226Y-111155D01*
X-890060Y-109155D01*
X-891726Y-108155D01*
X-893393Y-108155D01*
X-895060Y-109155D01*
X-895893Y-111155D01*
X-895893Y-116155D01*
G54D13*
X-901369Y-250663D02*
X-888036Y-250663D01*
X-896369Y-245663D01*
X-888036Y-240663D01*
X-901369Y-240663D01*
G54D13*
X-901369Y-228996D02*
X-901369Y-235996D01*
X-888036Y-235996D01*
X-888036Y-228996D01*
G54D13*
X-894702Y-235996D02*
X-894702Y-228996D01*
G54D13*
X-901369Y-224329D02*
X-888036Y-224329D01*
X-901369Y-216329D01*
X-888036Y-216329D01*
G54D13*
X-888036Y-211662D02*
X-898869Y-211662D01*
X-900536Y-210662D01*
X-901369Y-208662D01*
X-901369Y-206662D01*
X-900536Y-204662D01*
X-898869Y-203662D01*
X-888036Y-203662D01*
G54D13*
X-900575Y-352660D02*
X-887242Y-352660D01*
X-887242Y-347660D01*
X-888075Y-345660D01*
X-889742Y-344660D01*
X-898075Y-344660D01*
X-899742Y-345660D01*
X-900575Y-347660D01*
X-900575Y-352660D01*
G54D13*
X-889742Y-331993D02*
X-898075Y-331993D01*
X-899742Y-332993D01*
X-900575Y-334993D01*
X-900575Y-336993D01*
X-899742Y-338993D01*
X-898075Y-339993D01*
X-889742Y-339993D01*
X-888075Y-338993D01*
X-887242Y-336993D01*
X-887242Y-334993D01*
X-888075Y-332993D01*
X-889742Y-331993D01*
G54D13*
X-887242Y-327326D02*
X-900575Y-327326D01*
X-892242Y-322326D01*
X-900575Y-317326D01*
X-887242Y-317326D01*
G54D13*
X-900575Y-312659D02*
X-887242Y-312659D01*
X-900575Y-304659D01*
X-887242Y-304659D01*
G54D11*
X-287800Y-108978D02*
X-242160Y-108978D01*
G54D13*
X-641814Y-106200D02*
X-636814Y-101200D01*
X-650147Y-101200D01*
G54D13*
X-286214Y-97469D02*
X-281214Y-92469D01*
X-294547Y-92469D01*
G54D13*
X-281214Y-79802D02*
X-281214Y-87802D01*
X-287047Y-87802D01*
X-287047Y-86802D01*
X-286214Y-84802D01*
X-286214Y-82802D01*
X-287047Y-80802D01*
X-288714Y-79802D01*
X-292047Y-79802D01*
X-293714Y-80802D01*
X-294547Y-82802D01*
X-294547Y-84802D01*
X-293714Y-86802D01*
X-292047Y-87802D01*
G54D13*
X-286214Y-333610D02*
X-281214Y-328610D01*
X-294547Y-328610D01*
G54D13*
X-283714Y-315943D02*
X-282047Y-316943D01*
X-281214Y-318943D01*
X-281214Y-320943D01*
X-282047Y-322943D01*
X-283714Y-323943D01*
X-287880Y-323943D01*
X-288714Y-323943D01*
X-287047Y-320943D01*
X-287047Y-318943D01*
X-287880Y-316943D01*
X-289547Y-315943D01*
X-292047Y-315943D01*
X-293714Y-316943D01*
X-294547Y-318943D01*
X-294547Y-320943D01*
X-293714Y-322943D01*
X-292047Y-323943D01*
X-287880Y-323943D01*
G54D13*
X-659951Y-278444D02*
X-658285Y-277444D01*
X-657451Y-275444D01*
X-657451Y-273444D01*
X-658285Y-271444D01*
X-659951Y-270444D01*
X-661618Y-270444D01*
X-663285Y-271444D01*
X-664118Y-273444D01*
X-664951Y-271444D01*
X-666618Y-270444D01*
X-668285Y-270444D01*
X-669951Y-271444D01*
X-670785Y-273444D01*
X-670785Y-275444D01*
X-669951Y-277444D01*
X-668285Y-278444D01*
G54D13*
X-659951Y-257777D02*
X-668285Y-257777D01*
X-669951Y-258777D01*
X-670785Y-260777D01*
X-670785Y-262777D01*
X-669951Y-264777D01*
X-668285Y-265777D01*
X-659951Y-265777D01*
X-658285Y-264777D01*
X-657451Y-262777D01*
X-657451Y-260777D01*
X-658285Y-258777D01*
X-659951Y-257777D01*
G54D11*
X-338798Y-209586D02*
X-338798Y-147276D01*
G54D11*
X-389797Y-189544D02*
X-389797Y-147475D01*
G54D11*
X-364397Y-189544D02*
X-364397Y-147475D01*
G54D11*
X-132225Y-189544D02*
X-290578Y-189544D01*
G54D11*
X-159397Y-311150D02*
X-163397Y-315150D01*
X-163397Y-323150D01*
X-161397Y-325150D01*
X-161397Y-357150D01*
X-163397Y-359150D01*
X-163397Y-367150D01*
X-159397Y-371150D01*
X-143397Y-371150D01*
X-139397Y-367150D01*
X-139397Y-359150D01*
X-141397Y-357150D01*
X-141397Y-325150D01*
X-139397Y-323150D01*
X-139397Y-315150D01*
X-143397Y-311150D01*
X-159397Y-311150D01*
G54D11*
X-154397Y-300150D02*
X-154397Y-311150D01*
G54D11*
X-148397Y-300150D02*
X-148397Y-311150D01*
G54D11*
X-148397Y-382150D02*
X-148397Y-371150D01*
G54D11*
X-154397Y-382150D02*
X-154397Y-371150D01*
G54D11*
X-185194Y-311150D02*
X-189194Y-315150D01*
X-189194Y-323150D01*
X-187194Y-325150D01*
X-187194Y-357150D01*
X-189194Y-359150D01*
X-189194Y-367150D01*
X-185194Y-371150D01*
X-169194Y-371150D01*
X-165194Y-367150D01*
X-165194Y-359150D01*
X-167194Y-357150D01*
X-167194Y-325150D01*
X-165194Y-323150D01*
X-165194Y-315150D01*
X-169194Y-311150D01*
X-185194Y-311150D01*
G54D11*
X-180194Y-300150D02*
X-180194Y-311150D01*
G54D11*
X-174194Y-300150D02*
X-174194Y-311150D01*
G54D11*
X-174194Y-382150D02*
X-174194Y-371150D01*
G54D11*
X-180194Y-382150D02*
X-180194Y-371150D01*
G54D11*
X-588194Y-101103D02*
X-584194Y-105103D01*
X-576194Y-105103D01*
X-574194Y-103103D01*
X-542194Y-103103D01*
X-540194Y-105103D01*
X-532194Y-105103D01*
X-528194Y-101103D01*
X-528194Y-85103D01*
X-532194Y-81103D01*
X-540194Y-81103D01*
X-542194Y-83103D01*
X-574194Y-83103D01*
X-576194Y-81103D01*
X-584194Y-81103D01*
X-588194Y-85103D01*
X-588194Y-101103D01*
G54D11*
X-599194Y-96103D02*
X-588194Y-96103D01*
G54D11*
X-599194Y-90103D02*
X-588194Y-90103D01*
G54D11*
X-517194Y-90103D02*
X-528194Y-90103D01*
G54D11*
X-517194Y-96103D02*
X-528194Y-96103D01*
G54D11*
X-454844Y-259059D02*
X-450844Y-263059D01*
X-442844Y-263059D01*
X-440844Y-261059D01*
X-408844Y-261059D01*
X-406844Y-263059D01*
X-398844Y-263059D01*
X-394844Y-259059D01*
X-394844Y-243059D01*
X-398844Y-239059D01*
X-406844Y-239059D01*
X-408844Y-241059D01*
X-440844Y-241059D01*
X-442844Y-239059D01*
X-450844Y-239059D01*
X-454844Y-243059D01*
X-454844Y-259059D01*
G54D11*
X-465844Y-254059D02*
X-454844Y-254059D01*
G54D11*
X-465844Y-248059D02*
X-454844Y-248059D01*
G54D11*
X-383844Y-248059D02*
X-394844Y-248059D01*
G54D11*
X-383844Y-254059D02*
X-394844Y-254059D01*
G54D11*
X-562397Y-259060D02*
X-558397Y-263060D01*
X-550397Y-263060D01*
X-548397Y-261060D01*
X-516397Y-261060D01*
X-514397Y-263060D01*
X-506397Y-263060D01*
X-502397Y-259060D01*
X-502397Y-243060D01*
X-506397Y-239060D01*
X-514397Y-239060D01*
X-516397Y-241060D01*
X-548397Y-241060D01*
X-550397Y-239060D01*
X-558397Y-239060D01*
X-562397Y-243060D01*
X-562397Y-259060D01*
G54D11*
X-573397Y-254060D02*
X-562397Y-254060D01*
G54D11*
X-573397Y-248060D02*
X-562397Y-248060D01*
G54D11*
X-491397Y-248060D02*
X-502397Y-248060D01*
G54D11*
X-491397Y-254060D02*
X-502397Y-254060D01*
G54D11*
X-764050Y-347500D02*
X-764050Y-436400D01*
X-613238Y-436400D01*
X-613238Y-347500D01*
X-764050Y-347500D01*
X-764050Y-436400D01*
G54D11*
X-764050Y-360994D02*
X-806119Y-360994D01*
X-806119Y-372107D01*
X-764844Y-372107D01*
G54D11*
X-764844Y-386394D02*
X-806119Y-386394D01*
X-806119Y-397507D01*
X-764844Y-397507D01*
G54D11*
X-764050Y-411000D02*
X-806913Y-411000D01*
X-806913Y-422113D01*
X-764844Y-422113D01*
G54D11*
X-688644Y-347500D02*
X-688644Y-435607D01*
G54D11*
G75*
G01X-643275Y-408788D02*
G03X-643275Y-408788I0J17300D01*
G01*
G54D11*
X-514812Y-347501D02*
X-514812Y-436401D01*
X-363999Y-436401D01*
X-363999Y-347501D01*
X-514812Y-347501D01*
X-514812Y-436401D01*
G54D11*
X-514812Y-360995D02*
X-556880Y-360995D01*
X-556880Y-372107D01*
X-515606Y-372107D01*
G54D11*
X-515606Y-386395D02*
X-556880Y-386395D01*
X-556880Y-397507D01*
X-515606Y-397507D01*
G54D11*
X-514812Y-411001D02*
X-557674Y-411001D01*
X-557674Y-422113D01*
X-515606Y-422113D01*
G54D11*
X-439406Y-347501D02*
X-439406Y-435607D01*
G54D11*
G75*
G01X-394037Y-408788D02*
G03X-394037Y-408788I0J17300D01*
G01*
G54D11*
X-127203Y-286017D02*
X-127203Y-226017D01*
G54D11*
X-127203Y-286017D02*
X-7203Y-286017D01*
G54D11*
X-127203Y-226017D02*
X-7203Y-226017D01*
G54D11*
X-7203Y-286017D02*
X-7203Y-226017D01*
G54D11*
X-135678Y-268892D02*
X-127740Y-268892D01*
G54D11*
X-135678Y-242698D02*
X-127740Y-242698D01*
G54D11*
X-126947Y-233967D02*
X-7884Y-233967D01*
G54D11*
X-314131Y-328014D02*
X-314131Y-388014D01*
G54D11*
X-314131Y-328014D02*
X-194131Y-328014D01*
G54D11*
X-314131Y-388014D02*
X-194131Y-388014D01*
G54D11*
X-194131Y-328014D02*
X-194131Y-388014D01*
G54D11*
X-322606Y-345139D02*
X-314668Y-345139D01*
G54D11*
X-322606Y-371333D02*
X-314668Y-371333D01*
G54D11*
X-313875Y-380064D02*
X-194812Y-380064D01*
G54D11*
G75*
G01X-509997Y-333552D02*
G03X-509997Y-309752I0J11900D01*
G01*
G54D11*
G75*
G01X-557728Y-309752D02*
G03X-557728Y-333552I0J-11900D01*
G01*
G54D11*
X-557622Y-333558D02*
X-509203Y-333558D01*
G54D11*
X-509203Y-309745D02*
X-557622Y-309745D01*
G54D14*
X-516210Y-320001D02*
X-521876Y-314334D01*
X-521876Y-329445D01*
G54D14*
X-536276Y-317168D02*
X-536276Y-326612D01*
X-535143Y-328501D01*
X-532876Y-329445D01*
X-530610Y-329445D01*
X-528343Y-328501D01*
X-527210Y-326612D01*
X-527210Y-317168D01*
X-528343Y-315279D01*
X-530610Y-314334D01*
X-532876Y-314334D01*
X-535143Y-315279D01*
X-536276Y-317168D01*
G54D14*
X-548410Y-329445D02*
X-548410Y-314334D01*
X-541610Y-323779D01*
X-541610Y-325668D01*
X-550676Y-325668D01*
G54D11*
G75*
G01X-358040Y-414573D02*
G03X-334240Y-414573I11900J0D01*
G01*
G54D11*
G75*
G01X-334240Y-366842D02*
G03X-358040Y-366842I-11900J0D01*
G01*
G54D11*
X-358047Y-366948D02*
X-358047Y-415367D01*
G54D11*
X-334234Y-415367D02*
X-334234Y-366948D01*
G54D14*
X-344490Y-408361D02*
X-338823Y-402694D01*
X-353934Y-402694D01*
G54D14*
X-341656Y-388294D02*
X-351101Y-388294D01*
X-352990Y-389427D01*
X-353934Y-391694D01*
X-353934Y-393961D01*
X-352990Y-396227D01*
X-351101Y-397361D01*
X-341656Y-397361D01*
X-339767Y-396227D01*
X-338823Y-393961D01*
X-338823Y-391694D01*
X-339767Y-389427D01*
X-341656Y-388294D01*
G54D14*
X-353934Y-376161D02*
X-338823Y-376161D01*
X-348267Y-382961D01*
X-350156Y-382961D01*
X-350156Y-373894D01*
G54D11*
X-749628Y-301767D02*
X-689628Y-301767D01*
G54D11*
X-749628Y-301767D02*
X-749628Y-181767D01*
G54D11*
X-689628Y-301767D02*
X-689628Y-181767D01*
G54D11*
X-749628Y-181767D02*
X-689628Y-181767D01*
G54D11*
X-732503Y-310242D02*
X-732503Y-302305D01*
G54D11*
X-706309Y-310242D02*
X-706309Y-302305D01*
G54D11*
X-697578Y-301511D02*
X-697578Y-182449D01*
G54D11*
X-838528Y-301767D02*
X-778528Y-301767D01*
G54D11*
X-838528Y-301767D02*
X-838528Y-181767D01*
G54D11*
X-778528Y-301767D02*
X-778528Y-181767D01*
G54D11*
X-838528Y-181767D02*
X-778528Y-181767D01*
G54D11*
X-821403Y-310242D02*
X-821403Y-302305D01*
G54D11*
X-795209Y-310242D02*
X-795209Y-302305D01*
G54D11*
X-786478Y-301511D02*
X-786478Y-182449D01*
G54D11*
G75*
G01X-610056Y-362980D02*
G03X-586256Y-362980I11900J0D01*
G01*
G54D11*
G75*
G01X-586256Y-315249D02*
G03X-610056Y-315249I-11900J0D01*
G01*
G54D11*
X-610063Y-315355D02*
X-610063Y-363774D01*
G54D11*
X-586250Y-363774D02*
X-586250Y-315355D01*
G54D14*
X-596506Y-356768D02*
X-590839Y-351101D01*
X-605950Y-351101D01*
G54D14*
X-593672Y-336701D02*
X-603117Y-336701D01*
X-605006Y-337834D01*
X-605950Y-340101D01*
X-605950Y-342368D01*
X-605006Y-344634D01*
X-603117Y-345768D01*
X-593672Y-345768D01*
X-591784Y-344634D01*
X-590839Y-342368D01*
X-590839Y-340101D01*
X-591784Y-337834D01*
X-593672Y-336701D01*
G54D14*
X-605950Y-324568D02*
X-590839Y-324568D01*
X-600284Y-331368D01*
X-602172Y-331368D01*
X-602172Y-322301D01*
G54D11*
G75*
G01X-775950Y-282017D02*
G03X-752150Y-282017I11900J0D01*
G01*
G54D11*
G75*
G01X-752150Y-234286D02*
G03X-775950Y-234286I-11900J0D01*
G01*
G54D11*
X-775957Y-234392D02*
X-775957Y-282811D01*
G54D11*
X-752144Y-282811D02*
X-752144Y-234392D01*
G54D14*
X-762400Y-275804D02*
X-756733Y-270138D01*
X-771844Y-270138D01*
G54D14*
X-759566Y-255738D02*
X-769011Y-255738D01*
X-770900Y-256871D01*
X-771844Y-259138D01*
X-771844Y-261404D01*
X-770900Y-263671D01*
X-769011Y-264804D01*
X-759566Y-264804D01*
X-757677Y-263671D01*
X-756733Y-261404D01*
X-756733Y-259138D01*
X-757677Y-256871D01*
X-759566Y-255738D01*
G54D14*
X-771844Y-243604D02*
X-756733Y-243604D01*
X-766177Y-250404D01*
X-768066Y-250404D01*
X-768066Y-241338D01*
G54D11*
X-674356Y-146285D02*
X-674356Y-334007D01*
G54D11*
X-577916Y-348691D02*
X-577916Y-304638D01*
G54D13*
X-549088Y-99771D02*
X-541088Y-99771D01*
X-541088Y-98938D01*
X-542088Y-97271D01*
X-548088Y-92271D01*
X-549088Y-90605D01*
X-549088Y-88938D01*
X-548088Y-87271D01*
X-546088Y-86438D01*
X-544088Y-86438D01*
X-542088Y-87271D01*
X-541088Y-88938D01*
G54D13*
X-561755Y-99771D02*
X-553755Y-99771D01*
X-553755Y-98938D01*
X-554755Y-97271D01*
X-560755Y-92271D01*
X-561755Y-90605D01*
X-561755Y-88938D01*
X-560755Y-87271D01*
X-558755Y-86438D01*
X-556755Y-86438D01*
X-554755Y-87271D01*
X-553755Y-88938D01*
G54D13*
X-570422Y-93105D02*
X-573422Y-94771D01*
X-574422Y-96438D01*
X-574422Y-99771D01*
G54D13*
X-566422Y-99771D02*
X-566422Y-86438D01*
X-571422Y-86438D01*
X-573422Y-87271D01*
X-574422Y-88938D01*
X-574422Y-90605D01*
X-573422Y-92271D01*
X-571422Y-93105D01*
X-566422Y-93105D01*
G54D11*
X-104841Y-88738D02*
X-507669Y-88738D01*
G54D11*
X-608872Y-88738D02*
X-853347Y-88738D01*
X-853347Y-337578D01*
X-583869Y-337578D01*
G54D11*
X-578710Y-337578D02*
X-316772Y-337578D01*
G54D11*
X-138972Y-337578D02*
X-104841Y-337578D01*
X-104841Y-88738D01*
G54D11*
G75*
G01X-139712Y-168451D02*
G03X-139712Y-144651I0J11900D01*
G01*
G54D11*
G75*
G01X-187444Y-144651D02*
G03X-187444Y-168451I0J-11900D01*
G01*
G54D11*
X-187338Y-168458D02*
X-138919Y-168458D01*
G54D11*
X-138919Y-144645D02*
X-187338Y-144645D01*
G54D14*
X-145925Y-154901D02*
X-151592Y-149234D01*
X-151592Y-164345D01*
G54D14*
X-165992Y-152067D02*
X-165992Y-161512D01*
X-164858Y-163401D01*
X-162592Y-164345D01*
X-160325Y-164345D01*
X-158058Y-163401D01*
X-156925Y-161512D01*
X-156925Y-152067D01*
X-158058Y-150178D01*
X-160325Y-149234D01*
X-162592Y-149234D01*
X-164858Y-150178D01*
X-165992Y-152067D01*
G54D14*
X-178125Y-164345D02*
X-178125Y-149234D01*
X-171325Y-158678D01*
X-171325Y-160567D01*
X-180392Y-160567D01*
G54D13*
X-158022Y-356169D02*
X-158022Y-364169D01*
X-157189Y-364169D01*
X-155522Y-363169D01*
X-150522Y-357169D01*
X-148856Y-356169D01*
X-147189Y-356169D01*
X-145522Y-357169D01*
X-144689Y-359169D01*
X-144689Y-361169D01*
X-145522Y-363169D01*
X-147189Y-364169D01*
G54D13*
X-158022Y-343502D02*
X-158022Y-351502D01*
X-157189Y-351502D01*
X-155522Y-350502D01*
X-150522Y-344502D01*
X-148856Y-343502D01*
X-147189Y-343502D01*
X-145522Y-344502D01*
X-144689Y-346502D01*
X-144689Y-348502D01*
X-145522Y-350502D01*
X-147189Y-351502D01*
G54D13*
X-147189Y-330835D02*
X-155522Y-330835D01*
X-157189Y-331835D01*
X-158022Y-333835D01*
X-158022Y-335835D01*
X-157189Y-337835D01*
X-155522Y-338835D01*
X-147189Y-338835D01*
X-145522Y-337835D01*
X-144689Y-335835D01*
X-144689Y-333835D01*
X-145522Y-331835D01*
X-147189Y-330835D01*
G54D13*
X-151356Y-322168D02*
X-153022Y-319168D01*
X-154689Y-318168D01*
X-158022Y-318168D01*
G54D13*
X-158022Y-326168D02*
X-144689Y-326168D01*
X-144689Y-321168D01*
X-145522Y-319168D01*
X-147189Y-318168D01*
X-148856Y-318168D01*
X-150522Y-319168D01*
X-151356Y-321168D01*
X-151356Y-326168D01*
G54D13*
X-183819Y-356169D02*
X-183819Y-364169D01*
X-182986Y-364169D01*
X-181319Y-363169D01*
X-176319Y-357169D01*
X-174652Y-356169D01*
X-172986Y-356169D01*
X-171319Y-357169D01*
X-170486Y-359169D01*
X-170486Y-361169D01*
X-171319Y-363169D01*
X-172986Y-364169D01*
G54D13*
X-183819Y-343502D02*
X-183819Y-351502D01*
X-182986Y-351502D01*
X-181319Y-350502D01*
X-176319Y-344502D01*
X-174652Y-343502D01*
X-172986Y-343502D01*
X-171319Y-344502D01*
X-170486Y-346502D01*
X-170486Y-348502D01*
X-171319Y-350502D01*
X-172986Y-351502D01*
G54D13*
X-172986Y-330835D02*
X-181319Y-330835D01*
X-182986Y-331835D01*
X-183819Y-333835D01*
X-183819Y-335835D01*
X-182986Y-337835D01*
X-181319Y-338835D01*
X-172986Y-338835D01*
X-171319Y-337835D01*
X-170486Y-335835D01*
X-170486Y-333835D01*
X-171319Y-331835D01*
X-172986Y-330835D01*
G54D13*
X-177152Y-322168D02*
X-178819Y-319168D01*
X-180486Y-318168D01*
X-183819Y-318168D01*
G54D13*
X-183819Y-326168D02*
X-170486Y-326168D01*
X-170486Y-321168D01*
X-171319Y-319168D01*
X-172986Y-318168D01*
X-174652Y-318168D01*
X-176319Y-319168D01*
X-177152Y-321168D01*
X-177152Y-326168D01*
G54D13*
X-409641Y-249473D02*
X-414641Y-244473D01*
X-414641Y-257807D01*
G54D13*
X-427308Y-246973D02*
X-427308Y-255307D01*
X-426308Y-256973D01*
X-424308Y-257807D01*
X-422308Y-257807D01*
X-420308Y-256973D01*
X-419308Y-255307D01*
X-419308Y-246973D01*
X-420308Y-245307D01*
X-422308Y-244473D01*
X-424308Y-244473D01*
X-426308Y-245307D01*
X-427308Y-246973D01*
G54D13*
X-431975Y-257807D02*
X-431975Y-244473D01*
G54D13*
X-431975Y-253640D02*
X-439975Y-244473D01*
G54D13*
X-434975Y-251140D02*
X-439975Y-257807D01*
G54D13*
X-516400Y-249473D02*
X-521400Y-244473D01*
X-521400Y-257807D01*
G54D13*
X-534067Y-246973D02*
X-534067Y-255307D01*
X-533067Y-256973D01*
X-531067Y-257807D01*
X-529067Y-257807D01*
X-527067Y-256973D01*
X-526067Y-255307D01*
X-526067Y-246973D01*
X-527067Y-245307D01*
X-529067Y-244473D01*
X-531067Y-244473D01*
X-533067Y-245307D01*
X-534067Y-246973D01*
G54D13*
X-538734Y-257807D02*
X-538734Y-244473D01*
G54D13*
X-538734Y-253640D02*
X-546734Y-244473D01*
G54D13*
X-541734Y-251140D02*
X-546734Y-257807D01*
G54D11*
X-247319Y-143507D02*
X-684675Y-143507D01*
G54D11*
G75*
G01X-54040Y-35557D02*
G03X-54040Y-35557I17858J0D01*
G01*
G54D11*
G75*
G01X-980744Y-35557D02*
G03X-980744Y-35557I17859J0D01*
G01*
G54D11*
G75*
G01X-980744Y-412588D02*
G03X-980744Y-412588I17859J0D01*
G01*
G54D11*
G75*
G01X-54041Y-412191D02*
G03X-54041Y-412191I17859J0D01*
G01*
G54D11*
G75*
G01X-122700Y-367344D02*
G03X-122700Y-367344I17859J0D01*
G01*
G54D11*
G75*
G01X-122700Y-59369D02*
G03X-122700Y-59369I17859J0D01*
G01*
G54D11*
G75*
G01X-871603Y-59369D02*
G03X-871603Y-59369I17859J0D01*
G01*
G54D11*
G75*
G01X-871603Y-367344D02*
G03X-871603Y-367344I17859J0D01*
G01*
G54D13*
X-25466Y-245901D02*
X-30466Y-240901D01*
X-30466Y-254235D01*
G54D13*
X-43133Y-243401D02*
X-43133Y-251735D01*
X-42133Y-253401D01*
X-40133Y-254235D01*
X-38133Y-254235D01*
X-36133Y-253401D01*
X-35133Y-251735D01*
X-35133Y-243401D01*
X-36133Y-241735D01*
X-38133Y-240901D01*
X-40133Y-240901D01*
X-42133Y-241735D01*
X-43133Y-243401D01*
G54D13*
X-53800Y-246735D02*
X-53800Y-254235D01*
G54D13*
X-53800Y-252568D02*
X-52800Y-253901D01*
X-50800Y-254235D01*
X-48800Y-253901D01*
X-47800Y-252568D01*
X-47800Y-246735D01*
G54D13*
X-58467Y-254235D02*
X-58467Y-240901D01*
X-65467Y-240901D01*
G54D13*
X-58467Y-247568D02*
X-65467Y-247568D01*
G54D13*
X-37038Y-263245D02*
X-36038Y-261578D01*
X-34038Y-260745D01*
X-32038Y-260745D01*
X-30038Y-261578D01*
X-29038Y-263245D01*
X-29038Y-267412D01*
X-29038Y-268245D01*
X-32038Y-266578D01*
X-34038Y-266578D01*
X-36038Y-267412D01*
X-37038Y-269078D01*
X-37038Y-271578D01*
X-36038Y-273245D01*
X-34038Y-274078D01*
X-32038Y-274078D01*
X-30038Y-273245D01*
X-29038Y-271578D01*
X-29038Y-267412D01*
G54D13*
X-41705Y-263245D02*
X-42705Y-261578D01*
X-44705Y-260745D01*
X-46705Y-260745D01*
X-48705Y-261578D01*
X-49705Y-263245D01*
X-49705Y-264912D01*
X-48705Y-266578D01*
X-46705Y-267412D01*
X-48705Y-268245D01*
X-49705Y-269912D01*
X-49705Y-271578D01*
X-48705Y-273245D01*
X-46705Y-274078D01*
X-44705Y-274078D01*
X-42705Y-273245D01*
X-41705Y-271578D01*
G54D13*
X-54372Y-260745D02*
X-59372Y-274078D01*
X-64372Y-260745D01*
G54D13*
X-240238Y-354247D02*
X-232238Y-354247D01*
X-232238Y-353414D01*
X-233238Y-351747D01*
X-239238Y-346747D01*
X-240238Y-345081D01*
X-240238Y-343414D01*
X-239238Y-341747D01*
X-237238Y-340914D01*
X-235238Y-340914D01*
X-233238Y-341747D01*
X-232238Y-343414D01*
G54D13*
X-252905Y-354247D02*
X-244905Y-354247D01*
X-244905Y-353414D01*
X-245905Y-351747D01*
X-251905Y-346747D01*
X-252905Y-345081D01*
X-252905Y-343414D01*
X-251905Y-341747D01*
X-249905Y-340914D01*
X-247905Y-340914D01*
X-245905Y-341747D01*
X-244905Y-343414D01*
G54D13*
X-265572Y-343414D02*
X-265572Y-351747D01*
X-264572Y-353414D01*
X-262572Y-354247D01*
X-260572Y-354247D01*
X-258572Y-353414D01*
X-257572Y-351747D01*
X-257572Y-343414D01*
X-258572Y-341747D01*
X-260572Y-340914D01*
X-262572Y-340914D01*
X-264572Y-341747D01*
X-265572Y-343414D01*
G54D13*
X-276239Y-346747D02*
X-276239Y-354247D01*
G54D13*
X-276239Y-352581D02*
X-275239Y-353914D01*
X-273239Y-354247D01*
X-271239Y-353914D01*
X-270239Y-352581D01*
X-270239Y-346747D01*
G54D13*
X-280906Y-354247D02*
X-280906Y-340914D01*
X-287906Y-340914D01*
G54D13*
X-280906Y-347581D02*
X-287906Y-347581D01*
G54D13*
X-242556Y-363654D02*
X-243556Y-361988D01*
X-245556Y-361154D01*
X-247556Y-361154D01*
X-249556Y-361988D01*
X-250556Y-363654D01*
X-250556Y-365321D01*
X-249556Y-366988D01*
X-247556Y-367821D01*
X-249556Y-368654D01*
X-250556Y-370321D01*
X-250556Y-371988D01*
X-249556Y-373654D01*
X-247556Y-374488D01*
X-245556Y-374488D01*
X-243556Y-373654D01*
X-242556Y-371988D01*
G54D13*
X-263224Y-361154D02*
X-255224Y-361154D01*
X-255224Y-366988D01*
X-256224Y-366988D01*
X-258224Y-366154D01*
X-260224Y-366154D01*
X-262224Y-366988D01*
X-263224Y-368654D01*
X-263224Y-371988D01*
X-262224Y-373654D01*
X-260224Y-374488D01*
X-258224Y-374488D01*
X-256224Y-373654D01*
X-255224Y-371988D01*
G54D13*
X-267890Y-361154D02*
X-272890Y-374488D01*
X-277890Y-361154D01*
G54D13*
X-721677Y-255613D02*
X-721677Y-263613D01*
X-720844Y-263613D01*
X-719177Y-262613D01*
X-714177Y-256613D01*
X-712511Y-255613D01*
X-710844Y-255613D01*
X-709177Y-256613D01*
X-708344Y-258613D01*
X-708344Y-260613D01*
X-709177Y-262613D01*
X-710844Y-263613D01*
G54D13*
X-721677Y-242946D02*
X-721677Y-250946D01*
X-720844Y-250946D01*
X-719177Y-249946D01*
X-714177Y-243946D01*
X-712511Y-242946D01*
X-710844Y-242946D01*
X-709177Y-243946D01*
X-708344Y-245946D01*
X-708344Y-247946D01*
X-709177Y-249946D01*
X-710844Y-250946D01*
G54D13*
X-710844Y-230279D02*
X-719177Y-230279D01*
X-720844Y-231279D01*
X-721677Y-233279D01*
X-721677Y-235279D01*
X-720844Y-237279D01*
X-719177Y-238279D01*
X-710844Y-238279D01*
X-709177Y-237279D01*
X-708344Y-235279D01*
X-708344Y-233279D01*
X-709177Y-231279D01*
X-710844Y-230279D01*
G54D13*
X-714177Y-219612D02*
X-721677Y-219612D01*
G54D13*
X-720011Y-219612D02*
X-721344Y-220612D01*
X-721677Y-222612D01*
X-721344Y-224612D01*
X-720011Y-225612D01*
X-714177Y-225612D01*
G54D13*
X-721677Y-214945D02*
X-708344Y-214945D01*
X-708344Y-207945D01*
G54D13*
X-715011Y-214945D02*
X-715011Y-207945D01*
G54D13*
X-731085Y-253294D02*
X-729418Y-252294D01*
X-728585Y-250294D01*
X-728585Y-248294D01*
X-729418Y-246294D01*
X-731085Y-245294D01*
X-732751Y-245294D01*
X-734418Y-246294D01*
X-735251Y-248294D01*
X-736085Y-246294D01*
X-737751Y-245294D01*
X-739418Y-245294D01*
X-741085Y-246294D01*
X-741918Y-248294D01*
X-741918Y-250294D01*
X-741085Y-252294D01*
X-739418Y-253294D01*
G54D13*
X-728585Y-232627D02*
X-728585Y-240627D01*
X-734418Y-240627D01*
X-734418Y-239627D01*
X-733585Y-237627D01*
X-733585Y-235627D01*
X-734418Y-233627D01*
X-736085Y-232627D01*
X-739418Y-232627D01*
X-741085Y-233627D01*
X-741918Y-235627D01*
X-741918Y-237627D01*
X-741085Y-239627D01*
X-739418Y-240627D01*
G54D13*
X-728585Y-227960D02*
X-741918Y-222960D01*
X-728585Y-217960D01*
G54D13*
X-814943Y-255613D02*
X-814943Y-263613D01*
X-814110Y-263613D01*
X-812443Y-262613D01*
X-807443Y-256613D01*
X-805776Y-255613D01*
X-804110Y-255613D01*
X-802443Y-256613D01*
X-801610Y-258613D01*
X-801610Y-260613D01*
X-802443Y-262613D01*
X-804110Y-263613D01*
G54D13*
X-814943Y-242946D02*
X-814943Y-250946D01*
X-814110Y-250946D01*
X-812443Y-249946D01*
X-807443Y-243946D01*
X-805776Y-242946D01*
X-804110Y-242946D01*
X-802443Y-243946D01*
X-801610Y-245946D01*
X-801610Y-247946D01*
X-802443Y-249946D01*
X-804110Y-250946D01*
G54D13*
X-804110Y-230279D02*
X-812443Y-230279D01*
X-814110Y-231279D01*
X-814943Y-233279D01*
X-814943Y-235279D01*
X-814110Y-237279D01*
X-812443Y-238279D01*
X-804110Y-238279D01*
X-802443Y-237279D01*
X-801610Y-235279D01*
X-801610Y-233279D01*
X-802443Y-231279D01*
X-804110Y-230279D01*
G54D13*
X-807443Y-219612D02*
X-814943Y-219612D01*
G54D13*
X-813276Y-219612D02*
X-814610Y-220612D01*
X-814943Y-222612D01*
X-814610Y-224612D01*
X-813276Y-225612D01*
X-807443Y-225612D01*
G54D13*
X-814943Y-214945D02*
X-801610Y-214945D01*
X-801610Y-207945D01*
G54D13*
X-808276Y-214945D02*
X-808276Y-207945D01*
G54D13*
X-824350Y-253294D02*
X-822684Y-252294D01*
X-821850Y-250294D01*
X-821850Y-248294D01*
X-822684Y-246294D01*
X-824350Y-245294D01*
X-826017Y-245294D01*
X-827684Y-246294D01*
X-828517Y-248294D01*
X-829350Y-246294D01*
X-831017Y-245294D01*
X-832684Y-245294D01*
X-834350Y-246294D01*
X-835184Y-248294D01*
X-835184Y-250294D01*
X-834350Y-252294D01*
X-832684Y-253294D01*
G54D13*
X-821850Y-232627D02*
X-821850Y-240627D01*
X-827684Y-240627D01*
X-827684Y-239627D01*
X-826850Y-237627D01*
X-826850Y-235627D01*
X-827684Y-233627D01*
X-829350Y-232627D01*
X-832684Y-232627D01*
X-834350Y-233627D01*
X-835184Y-235627D01*
X-835184Y-237627D01*
X-834350Y-239627D01*
X-832684Y-240627D01*
G54D13*
X-821850Y-227960D02*
X-835184Y-222960D01*
X-821850Y-217960D01*
G54D13*
X-413213Y-415130D02*
X-413213Y-428463D01*
X-420213Y-428463D01*
G54D13*
X-424880Y-428463D02*
X-424880Y-415130D01*
X-429880Y-423463D01*
X-434880Y-415130D01*
X-434880Y-428463D01*
G54D13*
X-443772Y-415130D02*
X-451772Y-415130D01*
X-450772Y-416796D01*
X-448772Y-419296D01*
X-446772Y-422630D01*
X-445772Y-425130D01*
X-445772Y-428463D01*
G54D13*
X-461439Y-421796D02*
X-459439Y-421796D01*
X-457439Y-420963D01*
X-456439Y-419296D01*
X-456439Y-417630D01*
X-457439Y-415963D01*
X-459439Y-415130D01*
X-461439Y-415130D01*
X-463439Y-415963D01*
X-464439Y-417630D01*
X-464439Y-419296D01*
X-463439Y-420963D01*
X-461439Y-421796D01*
X-463439Y-422630D01*
X-464439Y-424296D01*
X-464439Y-425963D01*
X-463439Y-427630D01*
X-461439Y-428463D01*
X-459439Y-428463D01*
X-457439Y-427630D01*
X-456439Y-425963D01*
X-456439Y-424296D01*
X-457439Y-422630D01*
X-459439Y-421796D01*
G54D13*
X-477106Y-417630D02*
X-477106Y-425963D01*
X-476106Y-427630D01*
X-474106Y-428463D01*
X-472106Y-428463D01*
X-470106Y-427630D01*
X-469106Y-425963D01*
X-469106Y-417630D01*
X-470106Y-415963D01*
X-472106Y-415130D01*
X-474106Y-415130D01*
X-476106Y-415963D01*
X-477106Y-417630D01*
G54D13*
X-489773Y-415130D02*
X-481773Y-415130D01*
X-481773Y-420963D01*
X-482773Y-420963D01*
X-484773Y-420130D01*
X-486773Y-420130D01*
X-488773Y-420963D01*
X-489773Y-422630D01*
X-489773Y-425963D01*
X-488773Y-427630D01*
X-486773Y-428463D01*
X-484773Y-428463D01*
X-482773Y-427630D01*
X-481773Y-425963D01*
G54D13*
X-616016Y-415130D02*
X-616016Y-428463D01*
X-623016Y-428463D01*
G54D13*
X-627683Y-428463D02*
X-627683Y-415130D01*
X-632683Y-423463D01*
X-637683Y-415130D01*
X-637683Y-428463D01*
G54D13*
X-641019Y-420130D02*
X-646019Y-415130D01*
X-646019Y-428463D01*
G54D13*
X-650686Y-420130D02*
X-655686Y-415130D01*
X-655686Y-428463D01*
G54D13*
X-658878Y-420526D02*
X-663878Y-415526D01*
X-663878Y-428860D01*
G54D13*
X-668545Y-420526D02*
X-673545Y-415526D01*
X-673545Y-428860D01*
G54D13*
X-678212Y-415526D02*
X-686212Y-415526D01*
X-685212Y-417193D01*
X-683212Y-419693D01*
X-681212Y-423026D01*
X-680212Y-425526D01*
X-680212Y-428860D01*
G54D13*
X-706900Y-418026D02*
X-707900Y-416360D01*
X-709900Y-415526D01*
X-711900Y-415526D01*
X-713900Y-416360D01*
X-714900Y-418026D01*
X-714900Y-419693D01*
X-713900Y-421360D01*
X-711900Y-422193D01*
X-713900Y-423026D01*
X-714900Y-424693D01*
X-714900Y-426360D01*
X-713900Y-428026D01*
X-711900Y-428860D01*
X-709900Y-428860D01*
X-707900Y-428026D01*
X-706900Y-426360D01*
G54D13*
X-719567Y-415526D02*
X-724567Y-428860D01*
X-729567Y-415526D01*
G54D13*
X-734234Y-418026D02*
X-735234Y-416360D01*
X-737234Y-415526D01*
X-739234Y-415526D01*
X-741234Y-416360D01*
X-742234Y-418026D01*
X-742234Y-419693D01*
X-741234Y-421360D01*
X-739234Y-422193D01*
X-741234Y-423026D01*
X-742234Y-424693D01*
X-742234Y-426360D01*
X-741234Y-428026D01*
X-739234Y-428860D01*
X-737234Y-428860D01*
X-735234Y-428026D01*
X-734234Y-426360D01*
G54D13*
X-35785Y-103026D02*
X-40785Y-98026D01*
X-40785Y-111360D01*
G54D13*
X-53452Y-100526D02*
X-53452Y-108860D01*
X-52452Y-110526D01*
X-50452Y-111360D01*
X-48452Y-111360D01*
X-46452Y-110526D01*
X-45452Y-108860D01*
X-45452Y-100526D01*
X-46452Y-98860D01*
X-48452Y-98026D01*
X-50452Y-98026D01*
X-52452Y-98860D01*
X-53452Y-100526D01*
G54D13*
X-58119Y-111360D02*
X-58119Y-98026D01*
G54D13*
X-58119Y-107193D02*
X-66119Y-98026D01*
G54D13*
X-61119Y-104693D02*
X-66119Y-111360D01*
G54D13*
X-814850Y-354247D02*
X-814850Y-340914D01*
G54D13*
X-819517Y-354247D02*
X-819517Y-340914D01*
X-827517Y-354247D01*
X-827517Y-340914D01*
G54D13*
X-850632Y-399373D02*
X-850632Y-407707D01*
X-849632Y-409373D01*
X-847632Y-410207D01*
X-845632Y-410207D01*
X-843632Y-409373D01*
X-842632Y-407707D01*
X-842632Y-399373D01*
X-843632Y-397707D01*
X-845632Y-396873D01*
X-847632Y-396873D01*
X-849632Y-397707D01*
X-850632Y-399373D01*
G54D13*
X-855298Y-396873D02*
X-855298Y-407707D01*
X-856298Y-409373D01*
X-858298Y-410207D01*
X-860298Y-410207D01*
X-862298Y-409373D01*
X-863298Y-407707D01*
X-863298Y-396873D01*
G54D13*
X-871966Y-410207D02*
X-871966Y-396873D01*
G54D13*
X-867966Y-396873D02*
X-875966Y-396873D01*
G54D13*
X-846632Y-424178D02*
X-850632Y-424178D01*
X-850632Y-428344D01*
X-849632Y-430011D01*
X-847632Y-430844D01*
X-845632Y-430844D01*
X-843632Y-430011D01*
X-842632Y-428344D01*
X-842632Y-420011D01*
X-843632Y-418344D01*
X-845632Y-417511D01*
X-847632Y-417511D01*
X-849632Y-418344D01*
X-850632Y-420011D01*
G54D13*
X-855298Y-430844D02*
X-855298Y-417511D01*
X-863298Y-430844D01*
X-863298Y-417511D01*
G54D13*
X-867966Y-430844D02*
X-867966Y-417511D01*
X-872966Y-417511D01*
X-874966Y-418344D01*
X-875966Y-420011D01*
X-875966Y-428344D01*
X-874966Y-430011D01*
X-872966Y-430844D01*
X-867966Y-430844D01*
M02*
